<?xml version="1.0" encoding="UTF-8"?>
<svg xmlns="http://www.w3.org/2000/svg" viewBox="0 0 111 70"  fill="none">
    <g >
    <path d="M8.359 33.848H.872v.703c1.679 0 2.262.155 2.262 1.624v13.887c0 1.47-.583 1.624-2.262 1.624v.703h8.526v-.703c-2.472 0-2.844-.274-2.844-1.652v-6.026a11.86 11.86 0 0 0 2.416.246c3.575 0 7.086-1.835 7.086-5.322 0-3.488-3.61-5.077-7.704-5.077M8.33 43.39a10.41 10.41 0 0 1-1.77-.183v-8.508h1.04c2.872 0 5.07.977 5.07 4.19 0 3.214-1.987 4.5-4.34 4.5Zm19.706-3.122-1.194 2.784h-.091c-.583-1.013-1.531-1.807-2.416-1.807-.674 0-1.25.52-2.015 1.498v7.34c0 1.498.428 1.653 2.289 1.653v.64h-7.213v-.64c1.377 0 1.679-.155 1.679-1.653V41.52c0-1.497-.31-1.652-1.679-1.652v-.64h4.924v2.876c1.34-2.018 2.26-3.185 3.483-3.185.885 0 1.805.703 2.233 1.343m7.487 12.128h-6.63v-.64c1.377 0 1.679-.154 1.679-1.652v-8.564c0-1.498-.303-1.652-1.679-1.652v-.64h4.951v10.863c0 1.498.31 1.653 1.679 1.653v.64-.008Zm-5.317-17.5c0-1.07.885-1.864 1.925-1.864 1.039 0 1.896.795 1.896 1.864 0 1.068-.857 1.863-1.896 1.863-1.04 0-1.925-.83-1.925-1.863Zm29.09 16.854v.64h-6.63v-.64c1.376 0 1.678-.155 1.678-1.653v-6.18c0-2.201-.794-3.242-2.416-3.242-1.13 0-2.05.83-2.472 1.807.028.275.063.612.063.922v6.7c0 1.498.302 1.653 1.714 1.653v.64h-6.63v-.64c1.377 0 1.679-.155 1.679-1.653v-6.18c0-2.201-.794-3.242-2.381-3.242-1.04 0-1.896.64-2.416 1.625v7.804c0 1.498.31 1.653 1.679 1.653v.64h-6.63v-.64c1.376 0 1.678-.155 1.678-1.653V41.54c0-1.497-.309-1.652-1.678-1.652v-.64h4.951v2.384c.611-1.224 2.05-2.693 4.094-2.693 2.199 0 3.364 1.251 3.793 2.967.548-1.252 2.05-2.967 4.277-2.967 2.78 0 3.94 2.018 3.94 4.465v6.7c0 1.498.302 1.653 1.713 1.653m2.437-1.667v-15.3c0-1.498-.365-1.652-1.987-1.652v-.64h5.253V50.09c0 1.498.302 1.653 1.65 1.653v.64h-6.601v-.64c1.376 0 1.678-.155 1.678-1.653m18.92.95-.365-.401c-.4.457-.64.64-1.103.64-.52 0-.976-.43-.976-1.287v-6.363c0-2.904-1.77-4.711-4.642-4.711-2.627 0-4.614 1.743-5.408 4.099l.611.246c.73-1.716 1.924-2.658 3.329-2.658 2.016 0 2.872 1.47 2.872 3.242v.885l-2.998 1.133c-2.416.913-4.067 1.863-4.067 3.825 0 1.961 1.531 2.995 3.238 2.995 1.706 0 3.09-1.04 3.849-2.145.4 1.407 1.53 2.145 2.844 2.145 1.313 0 2.261-.767 2.809-1.653m-5.675-.998c-.61.675-1.348 1.069-2.078 1.069-1.194 0-2.016-.886-2.016-2.173 0-1.441.857-2.11 2.016-2.602l2.078-.766V50.034Zm20.81 1.709v.64h-6.602v-.64c1.341 0 1.65-.155 1.65-1.653v-6.18c0-2.201-.92-3.242-2.507-3.242-1.04 0-1.924.64-2.444 1.625v7.804c0 1.498.309 1.653 1.678 1.653v.64h-6.63v-.64c1.377 0 1.68-.155 1.68-1.653v-8.564c0-1.498-.303-1.652-1.68-1.652v-.64h4.952v2.384c.611-1.224 2.17-2.693 4.13-2.693 2.78 0 4.094 2.018 4.094 4.465v6.7c0 1.498.309 1.653 1.678 1.653m13.505-1.66V32.498h-5.225v.64c1.651 0 2.016.154 2.016 1.652v5.077c-.702-.549-1.679-.95-2.901-.95-3.209 0-6.482 2.813-6.482 7.404 0 3.826 2.508 6.364 5.534 6.364 1.77 0 3.147-.977 3.849-1.99v1.68h4.923v-.64c-1.376 0-1.714-.154-1.714-1.652m-3.209.007c-.548.731-1.433 1.132-2.325 1.132-2.352 0-3.729-2.327-3.729-5.569 0-3.944 1.861-5.78 3.912-5.78.857 0 1.587.247 2.135.732v9.485h.007ZM19.364 62.403h3.111c.407 0 .766.077 1.082.232.316.155.569.373.744.654.183.281.274.612.274.984 0 .373-.091.71-.281.992-.19.281-.442.492-.758.64a2.501 2.501 0 0 1-1.054.218h-1.966v2.798h-1.152v-6.518Zm3.518 2.7a.755.755 0 0 0 .359-.316.99.99 0 0 0 .119-.5c0-.288-.091-.513-.274-.682-.182-.161-.442-.246-.787-.246h-1.783v1.85H22.3c.224 0 .42-.036.582-.113v.007Zm-1.643.38 1.39.21 2.121 3.228h-1.383l-2.135-3.438h.007ZM27.342 62.402h4.488v.949h-3.343v1.772h3.048v.942h-3.048v1.884h3.343v.964h-4.488v-6.518.007ZM35.384 68.78c-.4-.19-.71-.443-.927-.774a2.298 2.298 0 0 1-.373-1.097h1.152c.021.218.092.415.204.598.112.183.28.338.513.457.231.12.52.183.863.183.323 0 .597-.05.815-.14.218-.092.38-.212.477-.36a.838.838 0 0 0 .155-.47c0-.268-.084-.479-.253-.633-.168-.155-.484-.274-.934-.359l-.737-.126c-.703-.12-1.208-.33-1.517-.64-.31-.31-.464-.724-.464-1.259 0-.337.099-.654.288-.949.19-.295.464-.52.829-.696.365-.176.78-.253 1.25-.253.555 0 1.018.098 1.39.288.373.19.66.443.864.745.197.31.316.647.359 1.006h-1.166a1.659 1.659 0 0 0-.225-.584 1.085 1.085 0 0 0-.464-.4 1.69 1.69 0 0 0-.744-.155c-.295 0-.52.042-.71.133a.972.972 0 0 0-.414.338.778.778 0 0 0-.126.422c0 .267.084.464.253.597.168.134.477.24.92.317l.71.12c.694.119 1.228.337 1.593.667s.548.767.548 1.308c0 .38-.105.724-.323 1.027-.218.302-.527.534-.927.703-.4.169-.878.253-1.419.253-.54 0-1.039-.091-1.446-.281l-.014.014ZM42.138 62.403h1.166v6.518h-1.166v-6.518ZM46.367 62.402h2.269c.646 0 1.229.126 1.755.38a2.96 2.96 0 0 1 1.25 1.117c.31.492.464 1.076.464 1.758 0 .682-.148 1.252-.442 1.744a2.864 2.864 0 0 1-1.222 1.125c-.52.26-1.11.387-1.77.387h-2.31v-6.518l.006.007Zm3.4 5.287c.35-.169.624-.422.821-.76.197-.337.295-.752.295-1.25 0-.5-.098-.929-.295-1.273a1.863 1.863 0 0 0-.815-.767 2.748 2.748 0 0 0-1.208-.253h-1.032v4.556h1.004c.47 0 .878-.084 1.23-.253ZM54.794 62.402h4.488v.949h-3.343v1.772h3.048v.942h-3.048v1.884h3.343v.964h-4.488v-6.518.007ZM62.036 62.403h1.615l2.837 4.971v-4.971h1.138v6.518h-1.46l-2.986-5.238v5.238h-1.144v-6.518ZM71.86 68.632a2.94 2.94 0 0 1-1.151-1.21c-.274-.52-.408-1.103-.408-1.764s.134-1.23.408-1.744a2.984 2.984 0 0 1 1.151-1.21c.499-.288 1.075-.435 1.728-.435s1.208.126 1.665.372c.456.246.814.57 1.06.97.246.401.4.823.456 1.273h-1.222a2.25 2.25 0 0 0-.33-.801 1.736 1.736 0 0 0-.646-.584c-.274-.148-.61-.225-1.011-.225-.4 0-.745.091-1.053.281a1.95 1.95 0 0 0-.724.816c-.175.359-.26.787-.26 1.287 0 .499.085.92.26 1.286.176.366.415.64.724.823.308.183.66.274 1.053.274.393 0 .737-.07 1.018-.218.274-.147.492-.337.653-.583.155-.246.267-.52.33-.816h1.23a2.95 2.95 0 0 1-.45 1.273c-.253.4-.61.724-1.075.977-.463.253-1.025.38-1.685.38-.66 0-1.215-.14-1.714-.43l-.007.008ZM79.39 62.402h4.487v.949h-3.343v1.772h3.048v.942h-3.048v1.884h3.343v.964h-4.488v-6.518.007ZM87.43 68.78c-.4-.19-.709-.443-.926-.774a2.298 2.298 0 0 1-.373-1.097h1.152c.021.218.092.415.204.598.112.183.28.338.513.457.231.12.52.183.863.183.323 0 .597-.05.815-.14.218-.092.38-.212.478-.36a.838.838 0 0 0 .154-.47c0-.268-.084-.479-.253-.633-.168-.155-.484-.274-.934-.359l-.737-.126c-.702-.12-1.208-.33-1.517-.64-.31-.31-.464-.724-.464-1.259 0-.337.099-.654.288-.949.19-.295.464-.52.83-.696.364-.176.779-.253 1.25-.253.554 0 1.017.098 1.39.288.372.19.66.443.864.745.196.31.316.647.358 1.006h-1.166a1.659 1.659 0 0 0-.225-.584 1.085 1.085 0 0 0-.463-.4 1.689 1.689 0 0 0-.745-.155c-.295 0-.52.042-.71.133a.973.973 0 0 0-.413.338.779.779 0 0 0-.127.422c0 .267.084.464.253.597.168.134.477.24.92.317l.71.12c.695.119 1.228.337 1.594.667.365.33.547.767.547 1.308 0 .38-.105.724-.323 1.027-.218.302-.526.534-.927.703-.4.169-.878.253-1.419.253-.54 0-1.039-.091-1.446-.281l-.014.014ZM65.603 13.909c-.407.112-1.545-.014-2.24.063-.857.099-1.012.31-1.805.45-.787.141-1.06-.077-1.173-.443-.162-.562.54-1.265.807-1.793.443-.857.675-2.292.457-2.967-.204-.64-.435-1.329-.66-2.243-.183-.724-.415-1.645-.506-1.687-.091-.042-1.13.984-1.664 1.392-.597.457-1.398.823-2.374.977-.47.07-.653.317-.773.338-.07.014-.386-.225-.702-.274-1.903-.31-2.015-.38-3.125-.865-.54-.232-1.686-1.013-1.826-.921-.14.091.126.745.162 1.392.028.47-.4 1.983-.295 3.227.084.97 1.116 2.7 1.362 3.185.274.535.464 1.125-.611 1.027-.653-.056-.955-.338-1.763-.387-.807-.05-1.805.12-2.395.091-.47-.02-1.257-.267-1.397-.175-.14.091.885 1.357 1.278 1.905.78 1.097.527 1.955.843 3.6.274 1.442 1.636 3.087 3.378 3.368.857.134 2.753-.14 3.603-.387a.16.16 0 0 0 .056-.28c-.464-.373-.766-.866-1.145-1.61-.28-.563-.358-1.491-.358-2.138 0-.043.042-.064.077-.043.302.183.646.422.829.443.042 0 .07-.042.042-.077-.197-.274-.464-.921-.611-1.441a.233.233 0 0 1 0-.099c.323-.935 1.236-3.487 1.32-4.444.07-.871.134-2.25.099-3.002-.043-.97-.197-1.56-.064-1.673.127-.099.934.049 1.475.527.548.492 1.903 1.765 2.38 2.672.226.415.535.844.556 1.329.02.548-.056 1.09.077 1.638.007.028.056.042.056.014.014-.134.05-.562.169-.95.014-.041.077-.048.098 0 .456 1.042.899 2.138.99 2.61.085.443.218.949.085 1.406-.134.457-.633.949-.99 1.251-.043.036-.008.099.041.092a4 4 0 0 0 .836-.246c.035-.014.077.014.077.056a6.365 6.365 0 0 1-.154.78c-.183.675-.773 1.59-1.728 2.173-.983.598-1.868.788-1.86.914.006.14.814.176 1.488.338.829.197 1.06.337 1.89.443.66.084 1.425.035 2.233-.352 1.629-.773 2.31-2.595 2.528-3.2.534-1.476.513-3.206.723-3.81.407-1.14 1.482-2.328 1.349-2.532-.078-.112-.618.204-1.18.36l.035-.022Z"/><path d="M58.44 16.856c-.105.098-.225.19-.344.274.02-.253.028-.513.02-.773.015-.275-.027-.542-.048-.816-.028-.274-.042-.541-.113-.809l-.175-.794c-.078-.26-.176-.513-.267-.767l-.14-.38c-.05-.126-.113-.245-.176-.365l-.365-.717c-.267-.464-.59-.893-.9-1.322.204.5.457.956.647 1.448l.07.19c-.07-.035-.147-.063-.218-.091a3.096 3.096 0 0 0-.751-.148c.246.064.477.155.688.274.105.064.204.127.295.204.035.029.07.064.106.099l.07.197c.042.126.098.239.133.365l.099.38.203.752.134.767c.056.253.07.506.09.766.015.253.057.514.036.767a9.975 9.975 0 0 1-.246 2.411c-.035-.042-.07-.091-.112-.14a7.029 7.029 0 0 0-.52-.598 5.86 5.86 0 0 0-1.215-.963c.386.337.723.724.997 1.146.14.21.267.422.38.647.112.21.21.443.28.654a12.009 12.009 0 0 1-1.186 2.791c.73-.78 1.27-1.737 1.636-2.75a9.197 9.197 0 0 0 .442-1.743c.113-.105.211-.21.31-.323.119-.148.231-.296.33-.457.196-.317.337-.682.337-1.041-.092.352-.31.633-.555.865h.028ZM55.581 22.832c-.273.47-.54.942-.8 1.42-.253.478-.499.956-.695 1.456-.092.246-.176.499-.24.738-.062.253-.133.527-.16.766-.07.479.013.795.26 1.533l-.043.021a5.233 5.233 0 0 1-.414-.724 2.531 2.531 0 0 1-.14-.408c-.155-.703.062-1.455.386-2.081.52-.984 1.137-1.877 1.804-2.742l.035.02h.008Z"/>
    </g>
</svg>