<svg xmlns="http://www.w3.org/2000/svg" viewBox="0 0 16 16"
 fill="none"><g clip-path="url(#a)"><path fill="#D9AE7D" d="M.054 8.16c.334.084.316.168.65.262s.352.019.686.113c.334.093.361-.02.695.065.334.085.289.272.623.366.333.094.36 0 .694.084.334.085.343.047.686.141.343.094.38-.075.713.01.145.037.307.422.235.553-.172.3-.262.234-.433.534-.172.3-.127.32-.298.62-.172.3-.199.28-.361.58-.163.301-.334.198-.505.498-.172.3-.037.384-.208.675-.171.291-.316.207-.487.507-.172.29.234.628.523.46.289-.179.316-.123.596-.3.28-.18.225-.273.514-.451.289-.178.307-.14.596-.31.288-.168.406.029.685-.14.28-.17.244-.253.533-.432.289-.178.298-.15.586-.328.127-.075.109-.047.145.103.081.338.198.3.28.638.08.338.045.347.126.675.081.329.18.31.262.647.08.338.144.32.225.657.081.338.1.328.18.666.082.337-.117.394-.035.722.08.328.667.319.749-.01.08-.337-.063-.375.018-.703.08-.328.144-.319.225-.647.082-.328.118-.328.208-.656.09-.329.171-.31.253-.648.08-.337.009-.356.099-.694.09-.337.054-.347.135-.675.036-.15.163-.16.289-.084.289.178.397-.028.686.15.289.178.135.431.424.6.289.169.28.178.569.356.288.179.387 0 .676.17.29.168.217.29.506.468.288.178.388 0 .676.169.28.178.46.019.298-.281-.171-.3.027-.422-.135-.713-.162-.29-.262-.235-.433-.535-.172-.3-.217-.272-.38-.563-.162-.29-.053-.365-.225-.665-.171-.3-.352-.188-.523-.488-.172-.3-.1-.347-.262-.638-.072-.131.018-.169.162-.206.325-.085.271-.281.596-.366.325-.084.307-.131.632-.216.325-.084.36.085.686 0 .325-.084.306-.14.631-.225.325-.084.307-.16.632-.244.325-.084.316-.121.64-.215.317-.085.326-.366 0-.45-.324-.085-.333-.02-.658-.104-.325-.084-.27-.281-.596-.365-.325-.085-.343 0-.658-.094-.316-.094-.334-.028-.66-.113-.324-.084-.324-.065-.649-.15-.325-.084-.289-.225-.614-.31-.144-.037-.288-.206-.207-.337.171-.3.262-.234.433-.534.171-.3.153-.3.325-.6.171-.3.19-.282.36-.582.172-.3.127-.32.299-.62.171-.3.225-.262.397-.562.171-.3.261-.244.433-.544.171-.29-.27-.675-.55-.497-.29.178-.307.14-.587.31-.28.168-.334.093-.614.262-.28.169-.298.16-.577.338-.28.178-.253.225-.542.403-.289.178-.316.131-.604.31-.29.178-.28.197-.56.375-.126.075-.126.047-.162-.094-.082-.338-.307-.272-.388-.61-.082-.337.009-.356-.073-.694-.08-.337.046-.365-.036-.703-.08-.338-.261-.29-.343-.62-.08-.327-.063-.337-.144-.674L8.655.28C8.573-.047 8.04-.094 7.96.234c-.082.338 0 .357-.09.685-.09.328-.118.328-.2.657-.08.328.091.375 0 .712-.09.338-.053.338-.143.676-.09.337-.127.319-.217.656-.09.338-.081.338-.163.675-.036.15-.252.179-.379.094-.288-.178-.36-.037-.65-.215-.288-.179-.297-.15-.577-.329-.28-.178-.262-.225-.541-.394-.28-.168-.154-.403-.442-.581-.29-.178-.434.084-.722-.094-.29-.178-.262-.216-.55-.394-.28-.178-.515.047-.353.338.172.3.081.347.253.647.171.3.153.3.325.6.171.3.19.282.352.582.162.3.261.234.433.534.171.3.036.375.207.676.172.3.217.272.388.572.073.13.055.3-.09.337-.334.085-.36 0-.695.085-.334.084-.325.103-.658.197-.334.093-.307.187-.641.272-.334.084-.388-.113-.722-.029-.334.085-.325.141-.659.226-.334.084-.343.065-.677.15-.334.084-.261.384-.595.469-.1.028-.154.075-.054.103l-.046.018Z"/></g><defs><clipPath id="a"><path fill="#fff" d="M0 0h16v16H0z"/></clipPath></defs></svg>