<svg xmlns="http://www.w3.org/2000/svg" fill="none" viewBox="0 0 28 14">
    <mask id="a" width="28" height="14" x="0" y="0" maskUnits="userSpaceOnUse" style="mask-type:alpha">
        <path fill="#D9D9D9" stroke="#fff" stroke-width=".28" d="M.14.14h27.72v13.72H.14z"/>
    </mask>
    <g mask="url(#a)">
        <path stroke="#fff" stroke-miterlimit="10" stroke-width="1.12" d="M-7.281 1.4c1.775 0 1.775 11.2 3.55 11.2S-1.953 1.4-.178 1.4c1.776 0 1.776 11.2 3.554 11.2 1.778 0 1.775-11.2 3.55-11.2s1.775 11.2 3.553 11.2 1.775-11.2 3.553-11.2 1.776 11.2 3.55 11.2c1.776 0 1.776-11.2 3.554-11.2 1.778 0 1.778 11.2 3.553 11.2s1.775-11.2 3.553-11.2 1.778 11.2 3.556 11.2 1.778-11.2 3.556-11.2"/>
    </g>
</svg>