<svg xmlns="http://www.w3.org/2000/svg" fill="none" viewBox="0 0 20 20" class="w-20 h-20"><path fill="currentColor" d="M17.502 14.266a.24.24 0 0 0-.089-.227c-.958-.729-2.222-1.046-2.953-1.183 1.462-1.017 3.294-1.855 3.313-1.87a.24.24 0 0 0 .144-.236.24.24 0 0 0-.188-.213c-.395-.099-.622-.264-.691-.506-.203-.743.958-2.072 1.422-2.522a.236.236 0 0 0 .03-.307.24.24 0 0 0-.307-.08c-1.442.662-2.074.544-2.355.33-.45-.345-.282-1.168-.282-1.177a.24.24 0 0 0-.103-.251.25.25 0 0 0-.282.01 17.6 17.6 0 0 0-2.77 2.35l1.2-3.907a.24.24 0 0 0-.104-.27.25.25 0 0 0-.296.024q-.89.766-1.506.534c-.918-.355-1.304-2.342-1.373-3.08a.25.25 0 0 0-.232-.217.24.24 0 0 0-.257.189C9.3 4.084 8.583 4.732 8.075 4.85c-.73.166-1.432-.68-1.442-.69a.243.243 0 0 0-.325-.052.234.234 0 0 0-.084.312c.898 1.637 1.397 3.662 1.595 4.594-1.744-1.06-2.776-2.621-2.79-2.64a.25.25 0 0 0-.282-.1.246.246 0 0 0-.173.247q.045.677-.31.913c-.603.393-1.966-.109-2.44-.336a.25.25 0 0 0-.316.08.24.24 0 0 0 .044.317C2.9 8.612 3.068 9.284 2.974 9.653c-.148.582-1.046.78-1.056.78a.24.24 0 0 0-.193.237.23.23 0 0 0 .188.232c1.303.298 2.893 1.377 3.679 1.954-1.28.213-2.583.98-2.647 1.017a.23.23 0 0 0-.114.223c.005.09.064.17.148.203 1.462.596 2.652.819 3.62.819 1.699 0 2.696-.677 3.22-1.202v4.376c0 .133.108.241.246.241a.247.247 0 0 0 .247-.24v-4.415c.949.937 2.247 1.225 3.477 1.225 1.802 0 3.437-.605 3.56-.648a.24.24 0 0 0 .153-.19Z"></path></svg>