<svg xmlns="http://www.w3.org/2000/svg"  viewBox="0 0 20 20" class="w-20 h-20"><path  d="M9.25 1v2.25h1.5V1zM4.167 3.106l-1.06 1.061.53.53.53.53.53.53 1.06-1.06-.53-.53-.53-.53-.53-.53Zm11.666 0-.53.53-.53.531-.53.53 1.06 1.06.53-.53.53-.53.53-.53zM10 4.75c-2.89 0-5.25 2.36-5.25 5.25s2.36 5.25 5.25 5.25 5.25-2.36 5.25-5.25S12.89 4.75 10 4.75m0 1.5c2.08 0 3.75 1.67 3.75 3.75s-1.67 3.75-3.75 3.75S6.25 12.08 6.25 10 7.92 6.25 10 6.25m-9 3v1.5h2.25v-1.5zm15.75 0v1.5H19v-1.5zM4.697 14.242l-.53.53-.53.53-.53.531 1.06 1.06.53-.53.53-.53.53-.53zm10.606 0-1.06 1.06.53.531.53.53.53.53 1.06-1.06-.53-.53-.53-.53-.53-.53ZM9.25 16.75V19h1.5v-2.25z"></path><path  d="M10 6.25c2.08 0 3.75 1.67 3.75 3.75s-1.67 3.75-3.75 3.75S6.25 12.08 6.25 10 7.92 6.25 10 6.25"></path></svg>