<!-- icon666.com - MILLIONS OF FREE VECTOR ICONS --><svg viewBox="0 0 32 32" xmlns="http://www.w3.org/2000/svg"><g id="Snowflake"><path d="m27.412 21.524-3.212-1.585 3.07-1.043a1 1 0 1 0 -.647-1.896l-4.964 1.686-2.659-1.308v-2.756l2.659-1.311 4.964 1.689a1 1 0 1 0 .643-1.893l-3.066-1.046 3.216-1.585a1 1 0 0 0 -.885-1.794l-3.215 1.585 1.038-3.067a1 1 0 0 0 -1.894-.644l-1.686 4.965-2.774 1.362-1-.5v-2.969l3.707-3.707a1 1 0 1 0 -1.414-1.414l-2.293 2.293v-3.586a1 1 0 0 0 -2 0v3.586l-2.293-2.293a1 1 0 0 0 -1.414 1.414l3.707 3.707v2.968l-1 .5-2.772-1.366-1.688-4.962a1 1 0 0 0 -1.894.646l1.043 3.071-3.216-1.589a1 1 0 0 0 -.885 1.794l3.217 1.585-3.071 1.039a1 1 0 0 0 .643 1.9l4.964-1.686 2.659 1.308v2.756l-2.659 1.311-4.964-1.689a1 1 0 1 0 -.643 1.9l3.071 1.043-3.217 1.581a1 1 0 0 0 .885 1.794l3.216-1.585-1.043 3.067a1 1 0 1 0 1.894.642l1.685-4.963 2.775-1.362 1 .5v2.968l-3.707 3.707a1 1 0 0 0 1.414 1.414l2.293-2.292v3.586a1 1 0 0 0 2 0v-3.586l2.293 2.293a1 1 0 0 0 1.414-1.414l-3.707-3.707v-2.968l1-.5 2.771 1.365 1.686 4.965a1 1 0 0 0 1.894-.644l-1.042-3.07 3.215 1.585a1 1 0 0 0 .885-1.794z" fill="rgb(0,0,0)"></path></g></svg>