<svg width="333" height="54" viewBox="0 0 333 54" fill="none" xmlns="http://www.w3.org/2000/svg">
<path d="M89.6108 25.6029C90.0808 26.2559 90.2859 26.9744 90.5659 27.7239C85.8409 32.2799 81.8059 37.4804 77.0859 42.0159C73.7059 45.6014 70.2009 49.0709 66.5809 52.4184C64.1609 54.2799 60.6259 56.4174 59.0759 59.0384L58.7659 59.1934C48.2109 55.0684 35.2159 33.8924 24.3259 27.6194L24.0759 27.1274C23.1409 25.0989 19.5158 21.2284 17.6808 19.9094C18.2358 19.6604 18.6108 19.1344 18.6708 18.5314C20.9908 21.2814 23.8008 23.6764 26.4359 26.1229C27.5558 25.3799 28.3659 24.3469 29.2709 23.3574C32.4759 20.4679 35.3958 17.2424 38.5408 14.2729C44.3508 8.78242 52.8009 2.00891 57.3259 -4.42609C57.5909 -4.21359 58.0909 -3.83608 58.2759 -3.57308C58.5409 -3.20258 58.6159 -2.71408 58.9009 -2.35808C59.6909 -1.36458 61.2859 -0.18959 62.5609 -0.08159C63.0659 -1.35109 62.3908 -2.21409 61.9258 -3.45859C64.3958 -1.61909 66.4009 0.537414 68.4958 2.77891L69.4858 4.26042L72.2458 6.90192C74.0808 9.36692 76.5058 11.5514 78.6658 13.7434C80.0358 15.1544 81.3409 16.6139 82.6509 18.0814L83.3859 19.2384C84.4559 20.5109 85.3708 21.8749 86.3058 23.2474L86.5709 23.4334C87.7059 24.6824 87.9558 25.0799 89.6108 25.6029ZM58.4609 0.240416C48.1959 8.35092 38.7959 17.4944 30.4059 27.5269L31.2009 29.1499C32.7559 29.5144 33.8309 30.3834 35.0259 31.4059C38.8609 34.6914 42.2009 38.6134 45.7709 42.1874C49.8359 46.2584 54.2309 49.9649 58.7209 53.5574C68.9509 45.4859 77.2109 36.2384 86.0809 26.7659L82.7259 23.1889C73.8109 16.7199 67.4809 6.93042 58.4609 0.240416Z" fill="#3CB49A"/>
<path d="M60.7008 17.5974C64.3858 18.7284 68.1358 20.5959 69.9208 24.2314C70.8358 26.0569 70.9758 28.1764 70.3008 30.1054C69.3158 32.9679 66.7908 35.2814 64.0608 36.4829C61.6308 37.5534 58.8058 37.8119 56.3258 36.7604C54.3458 35.9214 52.8708 34.3314 51.6708 32.6029C50.0458 31.1814 49.2808 29.1159 48.4058 27.1984C50.0158 23.8829 51.2458 20.5299 52.4408 17.0439C55.1908 17.1404 57.9558 17.3989 60.7008 17.5974ZM53.8708 19.9534L52.3608 21.5944L52.5708 22.1019L53.5808 21.9784L54.3808 21.2254C55.6158 20.6214 56.1658 20.1279 57.5458 20.3219C57.7308 21.7409 57.0358 22.8569 56.1558 23.9764C55.4458 24.8729 54.6708 25.7234 53.9058 26.5729C53.2108 28.0429 53.1108 28.7614 53.1858 30.3879C54.4608 31.8089 55.8258 33.3684 57.6058 34.1599C59.4008 34.9589 61.5758 34.9309 63.3908 34.1894C65.1658 33.4539 66.5508 31.9984 67.1908 30.1849C67.7708 28.5324 67.5608 26.7814 66.7608 25.2434C65.1408 22.1404 61.5258 20.5754 58.3758 19.5184C56.6558 19.3769 55.4808 19.2684 53.8708 19.9534Z" fill="#3CB49A"/>
<path d="M65.3459 27.2675C65.3109 28.5255 65.1659 29.1004 64.5009 30.1729C62.9159 31.2779 61.5658 31.626 59.6808 31.2605C57.4708 30.8315 56.5209 30.0184 55.3509 28.1954C55.8559 27.2439 56.3558 26.1914 56.9958 25.3269C57.8058 24.2394 58.5958 24.0904 59.8608 23.8589C62.0358 24.3404 63.6359 25.911 65.3459 27.2675Z" fill="#3CB49A"/>
<path d="M54.3809 21.2254L53.5809 21.9784L52.5709 22.1019L52.3609 21.5944L53.8709 19.9534L54.3809 21.2254Z" fill="#3CB49A" fill-opacity="0.368627"/>
<path d="M52.4409 17.0439C55.1909 17.1404 57.9559 17.3989 60.7009 17.5974C59.7809 18.2399 59.1209 18.6749 58.3759 19.5184C56.6559 19.3769 55.4808 19.2684 53.8708 19.9534L52.3608 21.5944L52.5709 22.1019L53.5809 21.9784L54.3809 21.2254C55.6159 20.6214 56.1658 20.1279 57.5458 20.3219C57.7308 21.7409 57.0359 22.8569 56.1559 23.9764C55.4459 24.8729 54.6709 25.7234 53.9059 26.5729C53.2109 28.0429 53.1109 28.7614 53.1859 30.3879C53.0459 30.2469 52.8959 30.1184 52.7709 29.9644C51.7809 28.7394 51.7108 26.7669 52.1108 25.2869C52.2608 24.7334 52.5008 24.2979 52.7458 23.7939L52.2059 23.3959C50.8909 23.9939 50.6809 24.1849 49.8209 25.3489C49.7559 27.5119 50.3459 28.9309 51.1909 30.8824C51.6659 31.9784 51.5108 31.4409 51.6708 32.6029C50.0458 31.1814 49.2809 29.1159 48.4059 27.1984C50.0159 23.8829 51.2459 20.5299 52.4409 17.0439Z" fill="#3CB49A"/>
<path d="M54.3809 21.2255C55.6159 20.6215 56.1658 20.128 57.5458 20.322C57.7308 21.741 57.0359 22.857 56.1559 23.9765C55.4459 24.873 54.6709 25.7235 53.9059 26.573C53.0409 25.003 53.3659 23.6715 53.5809 21.9785L54.3809 21.2255Z" fill="#3CB49A"/>
<path d="M83.3859 19.2384C84.4559 20.5109 85.3708 21.8749 86.3058 23.2474C86.0908 23.1819 85.8709 23.1279 85.6609 23.0509C84.0859 22.4799 82.6009 19.9694 81.6509 18.6349C80.5659 18.4709 80.6259 18.3334 79.5709 18.8664C80.5909 20.2889 82.3909 21.5059 82.7259 23.1889C73.8109 16.7199 67.4809 6.93042 58.4609 0.240416C48.1959 8.35092 38.7959 17.4944 30.4059 27.5269C29.8009 26.0869 29.4509 24.9094 29.2709 23.3574C32.4759 20.4679 35.3958 17.2424 38.5408 14.2729C44.3508 8.78242 52.8009 2.00891 57.3259 -4.42609C57.5909 -4.21359 58.0909 -3.83608 58.2759 -3.57308C58.5409 -3.20258 58.6159 -2.71408 58.9009 -2.35808C59.6909 -1.36458 61.2859 -0.18959 62.5609 -0.0815898C63.0659 -1.35109 62.3908 -2.21409 61.9258 -3.45859C64.3958 -1.61909 66.4009 0.537415 68.4958 2.77891L69.4858 4.26042L72.2458 6.90192C74.0808 9.36692 76.5058 11.5514 78.6658 13.7434C80.0358 15.1544 81.3409 16.6139 82.6509 18.0814L83.3859 19.2384Z" fill="#3CB49A"/>
<path d="M31.2009 29.15C29.7109 29.041 27.9559 28.2875 26.9459 27.094C26.7109 26.815 26.4909 26.484 26.4359 26.123C27.5559 25.38 28.3659 24.347 29.2709 23.3575C29.4509 24.9095 29.8009 26.087 30.4059 27.527L31.2009 29.15Z" fill="#3CB49A"/>
<path d="M367.311 75.8625C364.031 76.302 360.531 77.4485 357.671 75.333C352.436 71.4615 348.031 66.0775 343.401 61.4815C336.526 54.654 329.421 48.0365 322.371 41.392C317.281 36.599 312.256 31.4915 306.686 27.2745C320.011 16.1025 332.011 3.47497 344.331 -8.77702C348.911 -13.3315 353.416 -19.3465 358.766 -22.9105C361.456 -22.7185 364.006 -22.4535 366.651 -21.9105C357.871 -11.7295 347.696 -2.67902 338.021 6.63698C331.971 12.462 326.196 18.8915 319.746 24.252C318.761 24.8405 318.151 25.187 317.566 26.192C319.101 26.8825 322.221 26.11 324.011 26.0255C329.776 26.395 335.481 25.544 341.276 25.889C343.356 21.9825 345.541 18.057 350.036 16.586C352.986 15.6195 356.066 15.9745 358.751 17.534C361.581 19.1795 364.051 22.2305 364.706 25.479C365.231 28.098 364.516 30.7035 362.971 32.8505C360.331 36.518 356.416 37.9095 352.216 38.969C346.766 36.6915 344.606 33.5105 341.636 28.5835C335.131 29.4475 324.686 30.547 318.811 27.4465C322.446 32.713 327.081 36.989 331.656 41.4275C343.481 52.909 356.611 63.271 367.311 75.8625ZM345.521 27.973C347.876 30.699 349.546 32.586 353.376 32.794C355.351 32.901 357.161 32.4705 358.651 31.116C360.306 29.614 361.251 27.6315 361.301 25.406C358.621 22.6995 355.966 20.329 351.896 20.2615C350.251 20.2345 348.671 20.807 347.571 22.058C346.111 23.7155 345.671 25.8375 345.521 27.973Z" fill="#44CDAF"/>
<path d="M263.626 -7.00598C261.411 -3.62898 258.646 -0.726478 256.161 2.44502C253.201 6.21852 250.491 10.315 247.276 13.8635C243.756 17.75 240.031 20.7105 237.126 25.1835C236.966 29.822 247.591 36.8645 250.476 40.484C253.116 43.791 255.261 47.6705 257.331 51.3495C258.631 51.6585 259.461 52.141 260.551 52.8715L260.951 53.145L258.931 55.398C257.586 54.624 256.971 54.011 255.396 54.109L254.976 54.5455C253.796 55.753 253.051 56.4455 251.436 56.9585C250.331 56.7715 249.251 56.562 248.161 56.302C247.996 56.468 247.841 56.6395 247.671 56.8005C246.936 57.505 247.256 57.27 246.281 57.6515C239.626 55.7605 236.751 48.9585 232.281 47.172C230.216 44.828 228.131 42.6405 225.661 40.707C227.536 38.9395 230.196 36.9765 230.456 34.261C228.306 35.891 226.856 38.1745 224.811 39.945L223.536 38.867C223.986 36.894 226.446 34.552 227.731 32.955C225.846 34.499 223.971 35.9165 221.961 37.2885C220.486 36.0275 218.981 34.49 217.201 33.6905C216.916 31.773 212.506 28.6065 210.911 27.164C212.751 25.6845 214.496 24.1515 216.226 22.548C218.016 21.219 218.996 19.3175 221.146 18.493C221.481 19.3775 221.896 20.1745 222.346 21.0055L223.226 21.029C223.026 19.695 222.141 19.342 221.146 18.493L221.276 16.5505C223.756 14.7245 225.966 12.4405 228.206 10.3205C230.806 12.016 234.561 18.406 237.306 21.182L238.296 21.014L238.621 20.212C236.336 16.401 231.661 14.5025 229.806 9.94052C229.716 9.72252 229.641 9.49952 229.556 9.27902C232.166 6.55052 235.066 3.02602 238.271 1.01352C240.341 0.887018 241.261 0.0150242 242.941 -1.08048L243.636 -0.586976C243.251 2.93502 244.251 2.19403 245.831 4.86403C246.326 5.69803 244.636 8.94852 244.306 10.201C245.826 9.29302 246.606 6.46452 247.281 4.85702C246.191 3.71352 244.636 2.44002 244.246 0.884521L245.921 0.95552L246.201 0.351531C245.726 -0.273469 245.251 -0.621478 244.596 -1.03348L243.786 -1.53398L243.706 -2.66197L244.326 -3.31097C245.591 -2.66447 245.736 -1.10748 247.186 -0.624482C247.531 -2.47198 246.016 -3.45798 246.106 -5.52298C247.911 -4.76898 248.731 -3.42447 249.876 -1.89247C248.761 0.012028 247.971 0.815023 247.996 3.08302L248.516 3.52103C250.206 2.09303 250.486 -0.382471 250.951 -2.49797C253.126 -1.97497 253.441 -1.89947 254.946 -0.266968C256.586 -0.400468 262.026 -5.69948 263.626 -7.00598ZM250.291 47.186C249.311 48.647 247.976 50.167 248.026 51.991C248.701 53.7245 249.911 54.9755 251.106 56.378C251.801 55.0475 254.381 51.1035 254.111 49.813L253.491 49.5135C251.581 51.498 249.746 53.6225 247.326 54.99C248.606 52.577 252.126 48.5185 251.521 45.996L250.876 45.938L250.291 47.186ZM245.166 12.932L244.476 13.4095C243.441 14.224 242.881 14.8485 242.221 15.987L242.186 17.14C243.516 16.8005 243.956 15.6485 244.686 14.516C244.751 14.41 244.811 14.299 244.876 14.19L245.601 14.106C248.846 10.874 251.836 5.15903 253.891 1.00803L253.646 1.05502C250.426 4.54902 247.521 8.80502 245.166 12.932ZM228.116 14.3645C230.541 17.673 232.876 21.1415 235.691 24.132L236.546 24.112L236.896 23.5445C235.371 21.8595 229.766 14.1235 228.256 13.875L228.116 14.3645ZM245.811 50.979C247.521 49.938 248.651 46.984 249.106 45.0485C249.356 43.9815 249.291 42.941 249.171 41.864C247.766 44.4535 246.281 46.993 245.286 49.7745L245.811 50.979ZM242.276 52.466L243.641 51.9565C243.906 53.4145 244.011 53.8735 245.236 54.756C245.866 55.212 246.581 55.5865 247.261 55.967L247.706 55.3225C246.496 53.9415 244.971 51.0125 243.366 50.358L241.236 52.586C242.041 52.658 241.701 52.741 242.276 52.466ZM244.356 47.147C244.896 46.8525 244.616 47.065 245.116 46.414C245.146 46.151 245.171 45.887 245.206 45.624C245.531 43.21 247.171 42.5145 247.486 40.3945C246.416 40.3435 243.971 42.7325 242.866 43.447L242.766 44.2865L244.096 44.4195C244.231 45.7365 243.521 46.735 242.986 47.928C244.111 47.746 243.661 48.016 244.356 47.147ZM214.606 29.0125L215.946 28.9445C217.091 27.5665 220.756 24.0495 220.811 22.562C220.816 22.4455 220.751 22.3365 220.721 22.224C219.436 22.4355 216.306 26.199 215.441 27.389C215.071 27.9035 214.831 28.4225 214.606 29.0125ZM239.231 40.0705L240.106 39.772C240.811 38.219 241.466 36.7535 241.886 35.097L241.646 34.6055C240.301 35.782 239.736 37.887 239.076 39.5155L239.231 40.0705ZM223.766 17.63C224.996 19.1675 226.201 20.9235 227.711 22.191C228.636 22.102 228.361 22.3215 228.726 21.889C227.576 20.4575 225.841 17.63 224.016 17.3575L223.766 17.63ZM226.706 27.4705L228.231 25.4625L228.131 24.8015C227.266 25.2885 226.661 25.673 226.016 26.4285C225.186 27.3845 224.296 28.2975 223.716 29.4315L223.371 29.5055L223.101 30.114L223.441 30.095L223.716 29.4315L226.706 27.4705ZM240.751 47.1415L241.731 46.2125L241.561 45.4135L240.676 46.068L240.751 47.1415ZM222.351 35.0115L223.201 34.859L223.131 34.0325L222.171 34.333L222.351 35.0115ZM225.201 22.959L224.506 22.53L224.561 23.8195L225.471 24.131L225.201 22.959ZM231.596 25.5315C229.556 26.832 228.041 27.928 227.066 30.199C228.851 28.8985 230.316 27.319 231.596 25.5315C232.136 25.7795 232.576 26.113 233.066 26.453C232.806 27.15 232.566 27.845 232.331 28.55L232.751 29.058L234.466 27.9305L235.026 28.1685C235.056 28.658 235.096 28.8405 234.941 29.366C234.576 30.5975 233.761 31.3385 232.731 31.9705C231.796 31.513 230.881 31.1515 230.231 30.2995C230.121 30.155 230.041 29.9895 229.946 29.834L229.851 30.478C230.576 31.231 230.986 31.825 231.351 32.794C231.471 33.11 231.581 33.429 231.696 33.7465C231.941 34.1515 232.311 34.527 232.616 34.89C234.266 34.06 234.031 32.617 235.186 31.41C235.801 30.768 236.756 31.0655 237.546 31.095L237.571 30.2985C236.006 28.4865 234.466 26.5445 232.706 24.922C231.836 24.123 232.301 24.2655 231.296 24.314L231.596 25.5315ZM237.146 15.714C238.081 16.633 238.796 17.8075 240.126 17.9115C239.641 16.5455 238.976 16.2245 237.866 15.3225L237.516 14.9995C235.741 13.315 234.486 10.897 232.501 9.55153C233.471 12.122 234.966 14.049 237.146 15.714ZM238.301 35.4445C236.641 37.449 234.281 39.6735 233.511 42.1825C235.761 40.1555 237.676 38.499 238.301 35.4445ZM221.946 32.2245L221.916 31.2625C220.751 31.7195 220.906 31.9105 220.351 32.962L220.551 33.742C221.126 33.289 221.491 32.7965 221.946 32.2245ZM245.791 38.1845C244.021 38.351 242.506 40.2675 241.256 41.441L241.206 42.007C242.541 41.996 243.511 40.9995 244.466 40.07C245.011 39.5385 245.436 38.852 245.791 38.1845ZM225.581 15.1025C226.861 16.7365 228.096 18.3785 229.276 20.083L229.941 20.143L230.131 19.776C228.911 17.733 228.326 16.0985 226.141 14.9715L225.581 15.1025ZM237.071 32.9295C236.011 33.855 234.941 34.9825 234.131 36.1325C233.606 36.887 233.106 37.314 233.281 38.234C235.196 37.1495 236.356 35.095 237.626 33.343L239.431 33.292L239.986 32.65C238.671 32.0785 238.356 32.488 237.071 32.9295ZM217.586 32.127C218.961 30.8545 220.091 29.545 221.251 28.0765L221.161 27.628C219.926 27.902 219.106 28.6965 218.331 29.7165C217.736 30.504 217.626 31.1705 217.586 32.127Z" fill="#3CB49A" fill-opacity="0.988235"/>
<path d="M231.596 25.5315L231.296 24.314C232.301 24.2655 231.836 24.123 232.706 24.922C234.466 26.5445 236.006 28.4865 237.571 30.2985L237.546 31.095C236.756 31.0655 235.801 30.768 235.186 31.41C234.031 32.617 234.266 34.06 232.616 34.89C232.311 34.527 231.941 34.1515 231.696 33.7465C231.581 33.429 231.471 33.11 231.351 32.794C230.986 31.825 230.576 31.231 229.851 30.478L229.946 29.834C230.041 29.9895 230.121 30.155 230.231 30.2995C230.881 31.1515 231.796 31.513 232.731 31.9705C233.761 31.3385 234.576 30.5975 234.941 29.366C235.096 28.8405 235.056 28.658 235.026 28.1685L234.466 27.9305L232.751 29.058L232.331 28.55C232.566 27.845 232.806 27.15 233.066 26.453C232.576 26.113 232.136 25.7795 231.596 25.5315Z" fill="#3CB49A" fill-opacity="0.0470588"/>
<path d="M254.111 49.813C254.381 51.1035 251.801 55.0475 251.106 56.378C249.911 54.9755 248.701 53.7245 248.026 51.991C247.976 50.167 249.311 48.647 250.291 47.186L250.876 45.938L251.521 45.996C252.126 48.5185 248.606 52.577 247.326 54.99C249.746 53.6225 251.581 51.498 253.491 49.5135L254.111 49.813Z" fill="#3CB49A" fill-opacity="0.0431373"/>
<path d="M245.166 12.9319C247.521 8.80493 250.426 4.54893 253.646 1.05493L253.891 1.00793C251.836 5.15893 248.846 10.8739 245.601 14.1059L245.166 12.9319Z" fill="#3CB49A" fill-opacity="0.0784314"/>
<path d="M236.896 23.5445L236.546 24.112L235.691 24.132C232.876 21.1415 230.541 17.673 228.116 14.3645L228.256 13.875C229.766 14.1235 235.371 21.8595 236.896 23.5445Z" fill="#3CB49A" fill-opacity="0.14902"/>
<path d="M249.171 41.864C249.291 42.941 249.356 43.9815 249.106 45.0485C248.651 46.984 247.521 49.938 245.811 50.979L245.286 49.7745C246.281 46.993 247.766 44.4535 249.171 41.864Z" fill="#3CB49A" fill-opacity="0.0235294"/>
<path d="M244.356 47.147C243.661 48.016 244.111 47.746 242.986 47.928C243.521 46.735 244.231 45.7365 244.096 44.4195L242.766 44.2865L242.866 43.447C243.971 42.7325 246.416 40.3435 247.486 40.3945C247.171 42.5145 245.531 43.21 245.206 45.624C245.171 45.887 245.146 46.151 245.116 46.414L244.356 47.147Z" fill="#3CB49A" fill-opacity="0.0745098"/>
<path d="M247.706 55.3225L247.261 55.967C246.581 55.5865 245.866 55.212 245.236 54.756C244.011 53.8735 243.906 53.4145 243.641 51.9565L242.276 52.466C241.701 52.741 242.041 52.658 241.236 52.586L243.366 50.358C244.971 51.0125 246.496 53.9415 247.706 55.3225Z" fill="#3CB49A" fill-opacity="0.196078"/>
<path d="M220.721 22.224C220.751 22.3365 220.816 22.4455 220.811 22.562C220.756 24.0495 217.091 27.5665 215.946 28.9445L214.606 29.0125C214.831 28.4225 215.071 27.9035 215.441 27.389C216.306 26.199 219.436 22.4355 220.721 22.224Z" fill="#3CB49A" fill-opacity="0.0823529"/>
<path d="M237.866 15.3225L237.146 15.714C234.966 14.049 233.471 12.122 232.501 9.55151C234.486 10.897 235.741 13.315 237.516 14.9995L237.866 15.3225Z" fill="#3CB49A" fill-opacity="0.0980392"/>
<path d="M237.626 33.343C236.356 35.095 235.196 37.1494 233.281 38.2339C233.106 37.3139 233.606 36.8869 234.131 36.1324C234.941 34.9824 236.011 33.8549 237.071 32.9294L237.626 33.343Z" fill="#3CB49A" fill-opacity="0.0784314"/>
<path d="M241.646 34.6055L241.886 35.097C241.466 36.7535 240.811 38.219 240.106 39.772L239.231 40.0705L239.076 39.5155C239.736 37.887 240.301 35.782 241.646 34.6055Z" fill="#3CB49A" fill-opacity="0.109804"/>
<path d="M228.726 21.889C228.361 22.3215 228.636 22.102 227.711 22.191C226.201 20.9235 224.996 19.1675 223.766 17.63L224.016 17.3575C225.841 17.63 227.576 20.4575 228.726 21.889Z" fill="#3CB49A" fill-opacity="0.0313725"/>
<path d="M230.131 19.7759L229.941 20.1429L229.276 20.0829C228.096 18.3784 226.861 16.7364 225.581 15.1024L226.141 14.9714C228.326 16.0984 228.911 17.7329 230.131 19.7759Z" fill="#3CB49A" fill-opacity="0.4"/>
<path d="M245.791 38.1844C245.436 38.8519 245.011 39.5384 244.466 40.0699C243.511 40.9994 242.541 41.9959 241.206 42.0069L241.256 41.4409C242.506 40.2674 244.021 38.3509 245.791 38.1844Z" fill="#3CB49A" fill-opacity="0.054902"/>
<path d="M221.161 27.6279L221.251 28.0764C220.091 29.5449 218.961 30.8544 217.586 32.1269C217.626 31.1704 217.736 30.5039 218.331 29.7164C219.106 28.6964 219.926 27.9019 221.161 27.6279Z" fill="#3CB49A" fill-opacity="0.0588235"/>
<path d="M238.301 35.4445C237.676 38.499 235.761 40.1555 233.511 42.1825C234.281 39.6735 236.641 37.449 238.301 35.4445Z" fill="#3CB49A" fill-opacity="0.207843"/>
<path d="M244.876 14.19C244.811 14.299 244.751 14.41 244.686 14.516C243.956 15.6485 243.516 16.8005 242.186 17.14L242.221 15.987C242.881 14.8485 243.441 14.224 244.476 13.4095L244.876 14.19Z" fill="#3CB49A" fill-opacity="0.0901961"/>
<path d="M237.866 15.3225C238.976 16.2245 239.641 16.5455 240.126 17.9115C238.796 17.8075 238.081 16.633 237.146 15.714L237.866 15.3225Z" fill="#3CB49A" fill-opacity="0.145098"/>
<path d="M231.596 25.5315C230.316 27.319 228.851 28.8985 227.066 30.199C228.041 27.928 229.556 26.832 231.596 25.5315Z" fill="#3CB49A" fill-opacity="0.152941"/>
<path d="M220.551 33.7419L220.351 32.9619C220.906 31.9104 220.751 31.7195 221.916 31.2625L221.946 32.2244L220.551 33.7419Z" fill="#3CB49A" fill-opacity="0.176471"/>
<path d="M226.016 26.4285C226.661 25.673 227.266 25.2885 228.131 24.8015L228.231 25.4625L226.706 27.4705L226.016 26.4285Z" fill="#3CB49A" fill-opacity="0.0941176"/>
<path d="M237.071 32.9295C238.356 32.488 238.671 32.0785 239.986 32.65L239.431 33.292L237.626 33.343L237.071 32.9295Z" fill="#3CB49A" fill-opacity="0.219608"/>
<path d="M226.706 27.4705L223.716 29.4315C224.296 28.2975 225.186 27.3845 226.016 26.4285L226.706 27.4705Z" fill="#3CB49A" fill-opacity="0.207843"/>
<path d="M231.536 47.3149C236.826 52.7354 242.621 57.6704 248.161 62.8325C253.036 67.3719 257.646 72.323 262.996 76.3025C259.726 76.5564 256.551 76.664 253.276 76.5735C246.601 72.3935 240.926 65.2289 235.261 59.7374C223.936 48.7489 212.526 37.8515 201.026 27.0465L201.301 26.718L201.771 26.1785C206.841 20.2595 213.051 15.2985 218.621 9.84345C228.936 -0.26555 239.136 -11.1085 250.076 -20.5115C253.756 -23.674 257.546 -22.9695 262.041 -22.5975C257.126 -16.6225 251.151 -11.439 245.706 -5.95355C243.291 -3.69105 240.906 -0.946052 238.271 1.01345C235.066 3.02595 232.166 6.55045 229.556 9.27895L228.206 10.3205C225.966 12.4405 223.756 14.7245 221.276 16.5505C219.366 18.203 217.176 19.8275 215.611 21.8085C213.891 23.458 211.511 25.0649 210.196 27.0154C211.806 29.1229 214.736 32.7069 217.201 33.6905C218.936 36.6994 222.006 38.8885 224.676 41.0185C226.981 43.098 229.266 45.1969 231.536 47.3149Z" fill="#3CB49A"/>
<path d="M321.811 75.5545C321.006 76.3175 320.701 76.341 319.636 76.5255C317.861 76.8335 315.576 76.854 313.976 75.9095C309.426 73.221 303.691 66.0965 299.766 62.1915C294.906 57.3505 289.811 52.751 284.911 47.9475C277.496 40.684 270.661 33.4705 262.271 27.277C270.061 21.3195 276.821 14.31 283.791 7.43796C293.101 -1.62954 302.236 -10.872 311.196 -20.285C311.581 -20.663 311.971 -21.0375 312.381 -21.391C315.146 -23.7895 318.171 -23.0815 321.561 -22.808C316.146 -16.697 310.376 -11.179 304.651 -5.38603C294.041 5.54597 283.266 16.3165 272.331 26.9225C279.241 34.846 287.741 41.917 295.271 49.31C304.111 57.995 312.536 67.341 321.811 75.5545Z" fill="#3CB49A"/>
<path d="M212.861 75.5165C212.796 75.6225 212.751 75.7415 212.666 75.834C211.896 76.6915 211.431 76.889 210.296 77.017C208.681 77.199 206.861 76.7605 205.566 75.777C200.026 71.5685 195.166 64.927 190.351 59.8175C184.926 54.0585 179.061 48.6455 173.396 43.118C167.791 37.65 162.301 31.8535 156.171 26.9765C166.076 20.072 174.726 10.0795 183.011 1.27048L204.351 -21.2955C204.851 -21.7465 204.886 -21.8025 205.506 -22.2265C207.101 -23.3245 208.716 -23.264 210.566 -22.962C211.746 -22.769 211.271 -23.031 212.011 -21.9995C210.286 -16.8975 171.726 20.9675 165.001 27.2625C178.416 37.7235 190.356 50.892 201.881 63.368C205.551 67.3415 209.661 71.1495 212.861 75.5165Z" fill="#44CDAF"/>
<path d="M71.1859 -15.961L71.6859 -15.4005L71.1009 -14.745C70.1059 -13.653 68.1009 -12.762 68.0959 -11.3345L66.5159 -10.213L65.4158 -10.662L64.1859 -9.88104L64.0659 -7.55104L62.7659 -8.03554L62.5508 -7.49304C63.8008 -6.65304 64.6808 -6.40304 66.1158 -6.08054C65.9058 -6.11604 65.7008 -6.17754 65.4858 -6.18704C64.1008 -6.24654 62.5758 -6.05203 61.1808 -5.97653C57.7908 -7.27004 54.9309 -9.58753 51.8459 -11.455L51.0809 -12.365L50.3909 -13.4405L49.7809 -13.524C49.0709 -14.1155 48.4059 -14.6595 47.7859 -15.346L48.2859 -16.486C47.2809 -16.6 47.7309 -16.7135 46.8159 -16.0085C43.6859 -13.5935 41.0658 -9.98954 38.2458 -7.17104C34.5058 -3.43754 30.1208 -0.0425338 26.7908 4.04747L26.1609 4.76297C24.7959 6.16047 23.4658 7.63646 22.0408 8.96846L21.4059 9.63296C20.2459 10.623 19.0608 11.812 17.7308 12.5405C15.8758 13.3245 15.1408 14.278 14.3608 16.16C14.2358 16.4565 14.1209 16.7555 14.0009 17.053C12.2009 18.8645 4.41585 24.3415 4.37585 26.274L6.16583 27.3825L7.92584 28.845C12.7208 36.664 19.4559 41.817 25.8759 48.1795C35.9709 58.1885 46.6309 68.4205 55.8959 79.195C55.6809 79.877 55.4059 80.3225 55.0359 80.9245C53.8559 81.074 53.6509 81.0065 52.6459 80.2065C48.1759 76.6595 43.9909 71.2295 39.9409 67.103C32.5509 59.578 24.8109 52.488 17.3459 45.0575C10.7559 38.494 4.43085 31.126 -2.93915 25.435C10.4258 18.8665 39.1009 -14.6165 52.3759 -25.8005C53.5359 -26.778 54.2209 -26.9505 55.7059 -26.8155L56.0759 -26.133L54.8558 -23.9125C54.6408 -23.696 53.8409 -22.9845 53.7009 -22.7315C52.8059 -21.6665 51.8359 -20.6625 51.1859 -19.428L51.8859 -19.4215C53.7409 -21.2735 55.6209 -23.097 57.5259 -24.8925L58.5359 -25.349C60.5609 -23.2075 64.6609 -18.8015 67.4359 -18.352L67.8159 -17.9695C67.0209 -15.7805 65.1608 -16.789 63.6158 -15.4555L65.4158 -14.4445C67.3458 -14.2115 69.4009 -15.2895 71.1859 -15.961ZM55.6708 -18.154C55.0458 -18.2075 54.3009 -18.3605 53.6859 -18.2485C55.9359 -16.6665 59.8758 -14.0975 61.3608 -11.861C62.5608 -11.1065 62.6609 -10.9805 64.0609 -11.0635L64.5859 -11.7835C63.9959 -13.612 59.8859 -14.729 58.4109 -16.492C57.4209 -17.0035 56.5208 -17.425 55.6708 -18.154ZM57.4609 -10.563C58.4759 -9.77004 59.4608 -8.73954 60.7958 -8.65404L60.6808 -9.32953L57.9308 -11.5595C55.7158 -13.448 51.5509 -16.0995 50.7059 -18.7745L49.6208 -18.404L49.5759 -17.662C51.8959 -14.918 54.6659 -12.7945 57.4609 -10.563Z" fill="#3CB49A"/>
<path d="M107.031 19.267L107.816 20.555C108.011 22.337 107.981 23.0585 107.231 24.6845L106.501 25.2915L105.246 25.0835C105.356 23.8715 105.271 24.479 105.501 23.2615C105.501 23.268 105.496 23.2755 105.491 23.281L104.386 24.657C104.481 25.298 104.831 25.5 105.256 25.9725C105.821 26.154 106.471 26.43 107.056 26.5155L107.641 27.8325C107.091 28.5785 107.051 28.6145 106.131 28.986C104.101 29.0515 101.581 30.22 100.156 31.72C99.441 32.475 99.501 32.77 99.526 33.734C100.561 34.6585 101.626 34.868 102.931 35.2075L103.951 35.685C103.241 36.9325 102.881 37.426 101.716 38.2875C98.676 40.537 91.8459 47.2145 88.9609 50.1215C85.6809 49.671 85.1459 52.531 83.3109 50.2835L88.5109 44.0845C90.9959 41.421 94.0259 38.9315 97.2409 37.2085C98.2259 37.4445 99.1859 37.632 100.186 37.7775C98.3359 35.264 95.466 33.3235 93.161 31.1765L92.851 31.896C92.231 31.171 91.506 30.443 90.976 29.658L91.716 28.048L91.2109 27.584L90.5659 27.724C90.2859 26.9745 90.0809 26.256 89.6109 25.603L88.5009 23.9475L84.3609 18.861L84.0409 18.219C83.3509 17.165 82.7159 16.1365 81.8259 15.241C80.7909 14.317 79.771 13.4155 78.846 12.3775C77.956 11.425 77.0059 10.1865 75.9959 9.38496L72.3009 5.07097C71.6159 4.37397 70.8809 3.69446 70.2509 2.94446L69.3909 2.22647C66.8509 -0.565031 64.2959 -3.84353 61.1809 -5.97653C62.5759 -6.05203 64.1009 -6.24654 65.4859 -6.18704C65.7009 -6.17754 65.9059 -6.11604 66.1159 -6.08054C64.6809 -6.40304 63.8009 -6.65304 62.5509 -7.49304L62.7659 -8.03554L64.0659 -7.55104L64.1859 -9.88104C66.9509 -6.17404 71.3209 -4.14504 74.1109 -0.029039L75.4559 -1.28053L76.4509 -3.31354C76.0209 -4.36704 75.8109 -4.56353 75.0009 -5.29503L75.4259 -5.88954L76.8709 -5.94403L77.5809 -7.02403C78.3009 -6.55753 78.0459 -6.80554 78.5609 -6.16254C83.1659 -0.431538 89.081 4.99847 94.651 9.77797C97.036 11.8245 101.306 14.4585 103.031 16.845L101.671 18.07C100.796 18.754 100.161 19.2555 99.601 20.223C100.946 20.0745 101.746 19.1705 102.811 18.372L105.246 17.8425C104.746 19.4675 104.061 20.251 102.881 21.455L102.561 21.95L100.281 24.228C99.251 24.846 98.9659 25.246 98.4559 26.3305L98.8259 26.64C99.5559 26.1835 100.096 25.804 100.736 25.2115L102.791 23.187L104.221 21.5955C105.086 20.7005 106.041 20.014 107.031 19.267ZM79.0809 4.95596C77.6059 4.35546 76.1709 3.75696 74.7709 2.99296L74.526 3.51146C75.811 4.67896 76.9759 5.62796 78.711 5.80546L79.0809 4.95596ZM89.156 13.1075C87.846 11.2935 85.7459 9.94396 83.6859 9.11096L83.5409 9.49097C85.7959 12.147 89.8709 15.356 92.8909 17.051L93.151 16.7555C92.186 15.1465 91.2759 14.38 89.6659 13.4085C89.4959 13.306 89.326 13.208 89.156 13.1075ZM84.5809 6.02696C86.1609 7.27996 87.8209 8.05897 89.6409 8.91397C90.1709 9.99047 90.3209 9.89047 91.3159 10.4435L91.2609 9.65796C90.7309 9.36196 90.2509 9.00897 89.6409 8.91397C86.1409 5.55447 82.6209 2.19596 78.8909 -0.91504L78.8009 -0.657029C80.5159 1.39997 83.5609 3.68346 84.5809 6.02696ZM92.0409 22.9735C90.6909 21.534 88.9609 19.0685 87.0609 18.562C87.3609 20.4515 89.136 21.759 90.591 22.8385C91.136 23.2425 91.491 23.4075 92.156 23.5115L92.0409 22.9735ZM94.401 41.0695C93.631 41.7985 92.7159 42.2595 92.6709 43.3505C93.5859 42.9185 94.1459 42.501 94.8659 41.7865C95.8459 41.2065 96.501 40.629 97.276 39.8015L96.6809 39.629L94.401 41.0695Z" fill="#3CB49A"/>
<path d="M79.0809 4.95598L78.7109 5.80548C76.9759 5.62798 75.8109 4.67897 74.5259 3.51147L74.7709 2.99298C76.1709 3.75698 77.6059 4.35548 79.0809 4.95598Z" fill="#3CB49A" fill-opacity="0.635294"/>
<path d="M74.1108 -0.0290377C75.2308 1.59396 76.1008 1.58346 77.9308 2.09346C78.8858 3.19596 78.8659 3.49346 79.0809 4.95596C77.6059 4.35546 76.1709 3.75697 74.7709 2.99297L74.5259 3.51146L75.6158 6.39796C74.3508 5.95046 75.0558 6.27546 73.9858 5.62196C73.0258 5.03396 73.4908 5.22197 72.3008 5.07097C71.6158 4.37397 70.8809 3.69446 70.2509 2.94446L69.3909 2.22647C66.8509 -0.56503 64.2958 -3.84353 61.1808 -5.97653C62.5758 -6.05203 64.1008 -6.24654 65.4858 -6.18704C65.7008 -6.17754 65.9058 -6.11604 66.1158 -6.08054C64.6808 -6.40304 63.8008 -6.65304 62.5508 -7.49304L62.7659 -8.03554L64.0659 -7.55104L64.1859 -9.88104C66.9509 -6.17404 71.3208 -4.14504 74.1108 -0.0290377Z" fill="#3CB49A"/>
<path d="M69.4458 -0.533631C71.8408 0.11687 73.2008 1.07137 74.7708 2.99287C72.4908 2.67037 71.0008 1.04387 69.4458 -0.533631Z" fill="#3CB49A"/>
<path d="M75.6158 6.39786C79.2758 8.91586 82.3159 12.1904 85.4409 15.3239L84.8959 15.8509C84.1159 15.5684 83.5009 15.4234 82.6609 15.3244C82.3809 15.2914 82.1009 15.2689 81.8259 15.2409C80.7909 14.3169 79.7709 13.4153 78.8459 12.3773C77.9559 11.4248 77.0058 10.1864 75.9958 9.38486L72.3008 5.07086C73.4908 5.22186 73.0258 5.03386 73.9858 5.62186C75.0558 6.27536 74.3508 5.95036 75.6158 6.39786Z" fill="#3CB49A"/>
<path d="M89.6409 8.91393C90.1709 9.99043 90.3209 9.89042 91.3159 10.4434L89.1559 13.1074C87.8459 11.2934 85.7459 9.94392 83.6859 9.11092C83.3459 8.57392 83.1958 7.99492 82.9908 7.39792L84.5809 6.02692C86.1609 7.27992 87.8209 8.05892 89.6409 8.91393Z" fill="#3CB49A"/>
<path d="M89.1559 13.1074C89.3259 13.2079 89.4959 13.3059 89.6659 13.4084C91.2759 14.3799 92.1859 15.1464 93.1509 16.7554L92.8909 17.0509C89.8709 15.3559 85.7959 12.1469 83.5409 9.49091L83.6859 9.1109C85.7459 9.9439 87.8459 11.2934 89.1559 13.1074Z" fill="#3CB49A" fill-opacity="0.0784314"/>
<path d="M84.5809 6.0269C83.5609 3.6834 80.5159 1.39991 78.8009 -0.65709L78.8909 -0.915101C82.6209 2.1959 86.1409 5.55441 89.6409 8.91391C87.8209 8.05891 86.1609 7.2799 84.5809 6.0269Z" fill="#3CB49A" fill-opacity="0.0705882"/>
<path d="M92.1558 23.5114C91.4908 23.4074 91.1358 23.2425 90.5908 22.8385C89.1358 21.759 87.3608 20.4515 87.0608 18.562C88.9608 19.0685 90.6908 21.5339 92.0408 22.9734L92.1558 23.5114Z" fill="#3CB49A" fill-opacity="0.0352941"/>
<path d="M92.0408 22.9734C92.5658 21.9169 92.6708 21.8609 93.7058 21.2809L94.9958 21.455C95.6358 22.4075 95.7308 22.1639 95.5108 23.4034C94.1858 24.0619 93.6158 23.9934 92.1558 23.5114L92.0408 22.9734Z" fill="#3CB49A"/>
<path d="M94.4009 41.0695L96.6809 39.629L97.2759 39.8015C96.5009 40.629 95.8459 41.2065 94.8659 41.7865L94.4009 41.0695Z" fill="#3CB49A" fill-opacity="0.247059"/>
<path d="M94.8658 41.7864C94.1458 42.5009 93.5858 42.9184 92.6708 43.3504C92.7158 42.2594 93.6308 41.7984 94.4008 41.0694L94.8658 41.7864Z" fill="#3CB49A" fill-opacity="0.360784"/>
<path d="M89.6409 8.91388C90.2509 9.00888 90.7309 9.36187 91.2609 9.65787L91.3159 10.4434C90.3209 9.89037 90.1709 9.99038 89.6409 8.91388Z" fill="#3CB49A" fill-opacity="0.372549"/>
<path d="M343.906 -22.6735C342.001 -18.9515 337.371 -15.3245 334.361 -12.3675C326.186 -4.2435 317.946 3.8185 309.641 11.8165C304.816 16.5 297.851 21.836 294.326 27.5C299.506 31.0725 303.861 35.93 308.286 40.371L327.386 59.6425C331.991 64.198 338.746 68.7885 342.151 74.1445C342.776 75.129 342.861 75.1475 342.621 76.3405L341.356 76.8505C339.536 76.7145 338.706 76.449 337.131 75.527C329.351 67.984 321.521 60.489 313.646 53.0415C304.291 44.032 295.421 35.1015 285.171 27.0515C292.191 21.3145 298.541 15.0605 305.166 8.8815C310.506 3.9005 316.041 -0.931005 321.256 -6.038C326.171 -10.852 330.561 -16.6125 335.921 -20.928C338.546 -23.041 340.661 -23.0325 343.906 -22.6735Z" fill="#3CB49A"/>
<path d="M180.766 65.0874C184.021 67.7509 187.306 70.3274 187.911 74.7824L187.286 75.5319C185.006 75.3299 183.011 72.8139 181.281 71.4079C174.826 70.0414 167.916 70.5269 161.351 70.5759C147.451 70.6799 133.536 71.0609 119.641 70.8689C113.616 70.7859 107.186 71.1014 101.281 69.8419C101.106 69.9059 100.931 69.9684 100.756 70.0339C98.1009 71.0399 92.6109 75.1949 89.9609 74.2059C89.4559 74.0174 89.0309 73.6864 88.5959 73.3824L90.0209 72.1369C90.4609 72.2569 90.7659 72.3674 91.2459 72.3539C94.1359 72.2709 96.5009 69.2529 98.3059 67.3144L99.9409 66.1309C104.721 63.0614 106.521 57.4589 111.681 54.4609L112.696 55.2789C110.501 59.8654 105.486 63.4024 102.526 67.6649C127.161 66.6759 151.821 67.1249 176.431 66.0734C163.441 57.7189 150.886 40.0814 138.826 29.3484L138.266 27.9929C139.551 27.9304 140.816 27.7349 142.086 27.5539C145.151 30.1409 148.536 32.3499 151.536 35.0269C155.216 38.3104 158.341 42.2454 161.821 45.7389C168.131 52.0664 175.206 58.0944 180.766 65.0874Z" fill="#3CB49A"/>
<path d="M181.236 -16.7161C182.471 -16.5851 183.726 -16.5491 184.831 -15.9356C185.606 -15.5061 185.516 -14.8281 185.716 -14.0316C178.831 -9.56813 173.791 -3.23512 168.096 2.58638C159.746 11.1204 151.201 19.8324 142.086 27.5539C140.816 27.7349 139.551 27.9304 138.266 27.9929C138.706 27.1859 139.096 26.3624 139.486 25.5284C151.336 12.2924 163.346 -0.153127 176.476 -12.1301L175.511 -12.5556C161.911 -11.8291 148.221 -12.8561 134.616 -12.8711C125.731 -12.8806 116.646 -11.7866 107.791 -12.6296C105.951 -12.8051 104.291 -13.4656 102.576 -14.1241L102.341 -15.4856C109.011 -16.8236 116.136 -16.5271 122.911 -16.5736C132.941 -16.6876 142.971 -16.6541 152.996 -16.4731C162.376 -16.2936 171.891 -15.6981 181.236 -16.7161Z" fill="#3CB49A"/>
<path d="M53.0809 66.8335L52.1009 67.937L52.2259 68.77L49.9858 71.592L49.3309 70.5835C47.3859 68.415 45.4758 66.2225 43.3558 64.2265C34.5658 56.5815 27.2609 47.438 18.7609 39.5035C15.8009 37.428 13.6308 34.095 11.7458 31.056C11.2159 30.521 10.4959 29.947 10.1009 29.311L8.76587 28.494L6.53088 26.3105C6.57588 26.023 6.57589 25.7255 6.66089 25.4475C7.05589 24.1695 8.28084 23.866 9.36084 23.32C10.2808 22.304 11.3108 21.4865 12.2908 20.5435C13.7258 19.1695 13.9959 19.0785 14.0009 17.053C14.1209 16.7555 14.2358 16.4565 14.3608 16.16C15.1408 14.278 15.8758 13.3245 17.7308 12.5405L17.9059 13.1715L17.6459 13.3805C16.8059 14.4325 15.9709 14.984 16.0059 16.37L17.1359 16.681C18.0709 16.7635 18.7608 17.595 18.6708 18.5315C18.6108 19.1345 18.2358 19.6605 17.6808 19.9095C19.5158 21.2285 23.1409 25.099 24.0759 27.1275C21.4159 25.8845 17.9559 21.349 15.5309 21.2855L14.2659 23.258C14.3309 23.2935 14.3859 23.3505 14.4609 23.3645C16.5659 23.7815 18.1909 24.538 20.0209 25.689C20.0709 26.378 20.0709 26.989 20.0259 27.683C20.0059 27.9235 19.9809 28.163 19.9609 28.4035C21.4309 28.534 22.7409 27.704 24.0759 27.1275L24.3259 27.6195C23.9609 28.928 23.1108 29.9735 22.3658 31.101C23.2508 31.5615 24.5008 30.05 25.6808 29.8135C30.3258 33.6115 34.0559 38.0475 38.3409 42.215L37.0709 43.8345C36.0859 42.9505 35.0209 41.515 33.6909 41.448C32.0259 39.494 30.3008 37.7535 28.4208 36.0135L27.8058 36.2275L27.8159 36.9505C29.7059 38.549 31.5309 40.224 33.6909 41.448C34.1809 43.1915 36.1659 44.7515 37.5309 45.85L41.5009 49.777L42.9509 52.036C42.7959 52.069 42.6458 52.1095 42.4908 52.1345C41.8258 52.2415 41.3909 52.148 40.7509 52.0035C41.2559 52.829 41.8209 53.653 42.2559 54.5145C41.4709 54.205 40.7408 54.0435 39.9158 53.8925C41.1608 56.709 45.9359 60.1765 48.2259 62.317L51.0759 65.521L51.6259 65.558L53.0809 66.8335ZM14.0809 29.2685C14.3759 29.352 14.7009 29.3765 14.9759 29.518C16.2459 30.172 18.2359 32.7695 18.7259 34.0805C18.8059 34.303 18.8809 34.53 18.9559 34.755L20.2709 35.048L21.1559 34.0515C20.5909 32.2235 18.7359 31.627 17.6909 30.0035L15.7709 28.616C15.0009 27.478 14.2008 26.399 13.3558 25.3165L12.3909 25.149C12.1609 26.995 13.0709 27.792 14.0809 29.2685ZM24.6559 37.963L24.3459 39.4535C28.2259 41.0305 31.7059 45.234 34.6559 48.1395C35.4259 48.793 36.1409 49.2625 37.0309 49.7345L37.0309 49.196L35.3008 47.6975C33.4558 45.9175 26.4159 38.1375 24.6559 37.963ZM23.5408 36.097C24.5908 35.1345 25.9709 34.216 26.2659 32.759C24.7609 33.054 24.1108 34.3215 22.9258 35.2145L21.5759 36.085L20.6609 37.874C21.8709 37.748 22.5508 36.963 23.4208 36.194L23.5408 36.097Z" fill="#3CB49A"/>
<path d="M17.6908 30.0035C18.7358 31.627 20.5908 32.2235 21.1558 34.0515L20.2708 35.048L18.9558 34.755C18.8808 34.53 18.8058 34.303 18.7258 34.0805C18.2358 32.7695 16.2458 30.172 14.9758 29.518C14.7008 29.3765 14.3758 29.352 14.0808 29.2685C13.0708 27.792 12.1608 26.995 12.3908 25.149L13.3558 25.3165C14.2008 26.399 15.0008 27.478 15.7708 28.616L17.6908 30.0035Z" fill="#3CB49A" fill-opacity="0.0431373"/>
<path d="M35.3008 47.6974L34.6559 48.1395C31.7059 45.2339 28.2259 41.0304 24.3459 39.4534L24.6559 37.963C26.4159 38.1375 33.4558 45.9174 35.3008 47.6974Z" fill="#3CB49A" fill-opacity="0.0588235"/>
<path d="M22.9259 35.2144C24.1109 34.3214 24.7609 33.0539 26.2659 32.7589C25.9709 34.2159 24.5909 35.1344 23.5409 36.0969L23.4209 36.1939L22.9259 35.2144Z" fill="#3CB49A" fill-opacity="0.270588"/>
<path d="M23.4208 36.1939C22.5508 36.9629 21.8709 37.7479 20.6609 37.8739L21.5759 36.0849L22.9258 35.2144L23.4208 36.1939Z" fill="#3CB49A" fill-opacity="0.0196078"/>
<path d="M35.3008 47.6975L37.0308 49.196L37.0308 49.7345C36.1408 49.2625 35.4258 48.793 34.6558 48.1395L35.3008 47.6975Z" fill="#3CB49A" fill-opacity="0.188235"/>
<path d="M20.2709 35.0479L21.5759 36.0849L20.6609 37.8739C20.3959 38.0414 19.7359 38.3474 19.6009 38.6239L18.7609 39.5034C15.8009 37.4279 13.6308 34.0949 11.7458 31.0559L14.0809 29.2684C14.3759 29.3519 14.7009 29.3764 14.9759 29.5179C16.2459 30.1719 18.2359 32.7694 18.7259 34.0804C18.8059 34.3029 18.8809 34.5299 18.9559 34.7549L20.2709 35.0479Z" fill="#3CB49A"/>
<path d="M9.3609 23.3199L11.0109 24.2909L11.2459 25.2849C10.7559 26.6174 10.416 27.9284 10.101 29.3109L8.76593 28.4939L6.53094 26.3104C6.57594 26.0229 6.57595 25.7254 6.66095 25.4474C7.05595 24.1694 8.2809 23.8659 9.3609 23.3199Z" fill="#3CB49A"/>
<path d="M24.6558 37.963L24.3458 39.4535C23.4558 39.7695 22.5708 40.364 21.6808 39.966C20.8808 39.6075 20.2858 39.1565 19.6008 38.624C19.7358 38.3475 20.3958 38.0415 20.6608 37.874C21.8708 37.748 22.5508 36.963 23.4208 36.194L23.5408 36.097L24.6558 37.963Z" fill="#3CB49A"/>
<path d="M17.1359 16.6809C18.0709 16.7634 18.7609 17.5949 18.6709 18.5314C18.6109 19.1344 18.2359 19.6604 17.6809 19.9094C17.0359 20.2009 16.2759 20.0584 15.7809 19.5529C15.2859 19.0474 15.1559 18.2859 15.4559 17.6449C15.7609 17.0039 16.4309 16.6189 17.1359 16.6809Z" fill="#3CB49A"/>
<path d="M15.7709 28.6159C16.4709 27.3219 16.9858 26.7579 18.3558 26.1989L19.1009 26.6624C19.0459 28.2739 18.5759 28.6904 17.6909 30.0034L15.7709 28.6159Z" fill="#3CB49A"/>
<path d="M87.2958 39.3234C89.4458 37.5434 91.4209 33.9849 94.2009 33.5859C95.2759 34.3769 95.8458 35.0059 96.5508 36.1414C95.6558 37.7074 95.5458 36.6404 94.1808 37.1659C92.5108 37.8074 89.3509 42.0449 88.0959 43.4684C86.8209 44.8169 85.4659 46.1364 84.2559 47.5429L83.6859 48.2939C79.3309 52.1529 73.4409 56.7314 70.3359 61.6609L70.8959 62.1364L72.0558 62.0009C72.3808 61.5894 72.7109 61.1829 73.0259 60.7624C75.9559 56.8209 79.7059 53.6054 83.3109 50.2834C85.1459 52.5309 85.6809 49.6709 88.9609 50.1214C83.7009 54.8239 78.7909 59.5509 74.2059 64.9304C73.3309 66.0599 72.5109 67.2114 71.4109 68.1359L71.2259 69.0509L69.8459 70.7384C66.5259 73.1824 61.3608 76.1144 58.9808 79.4224L56.0159 78.9964C57.1309 76.2909 60.5759 74.0679 62.2509 71.4569C61.1709 71.5729 60.5308 72.5134 59.7458 73.2384C58.4608 74.5499 57.2208 75.9689 55.6708 76.9674C54.6958 76.1584 53.5008 75.5649 53.4359 74.1544C53.4158 73.7939 53.5908 73.2159 53.6859 72.8599C52.2609 72.9049 51.6208 73.1169 50.4858 72.1394C50.3008 71.9784 50.1558 71.7744 49.9858 71.5919L52.2259 68.7699L54.5959 67.1984L55.4759 65.6709L55.0159 65.4229L53.0809 66.8334L51.6259 65.5579L51.8109 64.5639L51.0959 63.5574C51.9909 63.4119 51.7209 63.5494 52.4109 63.1274C53.0809 62.7184 52.9659 62.3469 53.1459 61.6234C53.8259 62.0879 54.5258 62.4834 55.2408 62.8904L55.2659 62.1444L56.1009 59.4589C56.8259 60.2104 57.5608 60.5564 58.4958 61.0079L59.0959 60.6214L58.7659 59.1934L59.0759 59.0384C61.1809 58.3459 63.1909 56.5184 64.9609 55.1894C64.9259 55.2904 64.9058 55.3979 64.8608 55.4924C64.2958 56.5999 63.8758 57.0494 63.9308 58.3404C65.6958 58.4454 66.0709 56.1884 67.7709 56.0694L66.8459 58.0009L64.9258 59.5019L64.7958 60.2319L64.0959 60.6994L64.2809 61.2469C69.2509 58.2784 75.8209 52.4209 79.0359 47.5389L79.7809 46.7069L81.3309 44.6829L86.2908 40.1174L87.2958 39.3234ZM65.8109 66.8064C64.2358 65.3984 62.9409 63.8244 61.2809 62.4749L61.2859 63.0634C62.5209 65.0484 65.3808 69.0479 67.7358 69.6954L65.8109 66.8064ZM69.5408 66.9979L70.2159 66.5744C69.8409 65.1269 69.6208 63.8984 68.5508 62.7829C67.5208 63.0129 67.5109 63.1559 66.7759 63.8324L66.9109 64.5334L69.5408 66.9979ZM59.1609 66.5544C60.5359 67.7714 63.9258 71.8334 65.3658 72.1654L65.8109 71.6134C63.9308 69.5959 62.1009 67.3084 59.8459 65.7074L59.2609 65.9694L59.1609 66.5544Z" fill="#3CB49A"/>
<path d="M229.101 -23.3546C230.421 -23.4646 231.876 -23.6756 233.196 -23.5986C234.346 -23.5321 235.136 -23.4631 235.886 -22.5501C231.386 -15.9336 223.956 -10.3266 218.221 -4.75058C207.596 5.56842 197.021 16.1044 186.696 26.7154C187.831 27.7839 188.921 28.9024 190.016 30.0124C188.716 29.5124 188.091 29.0604 186.711 29.3534L186.261 30.1119C186.686 31.7029 187.126 33.1574 187.811 34.6569L187.351 35.2029C183.876 33.1939 180.211 29.4124 176.991 26.8454C184.836 22.0709 190.876 14.6689 197.316 8.18342C203.996 1.57542 210.621 -5.09158 217.191 -11.8166C220.991 -15.7121 224.731 -20.0996 229.101 -23.3546Z" fill="#3CB49A"/>
<path d="M190.016 30.0125C203.326 42.6595 216.221 55.6285 229.276 68.532C231.096 70.331 235.191 73.053 236.466 75.051C236.651 75.3485 236.651 75.7315 236.746 76.0715C235.816 77.006 233.801 77.1455 232.491 77.0865C230.726 77.007 229.006 76.2485 227.651 75.1465C222.096 70.639 217.151 64.7745 212.006 59.754C204.126 52.0575 195.331 44.5995 188.181 36.252C187.891 35.913 187.626 35.555 187.351 35.203L187.811 34.657C187.126 33.1575 186.686 31.703 186.261 30.112L186.711 29.3535C188.091 29.0605 188.716 29.5125 190.016 30.0125Z" fill="#3CB49A"/>
<path d="M298.826 76.0305C296.846 76.1555 294.501 76.6085 292.551 76.3435C291.486 76.1985 290.551 75.5965 289.771 74.8925C284.881 70.496 280.976 64.939 276.156 60.4315C268.041 52.839 258.451 47.002 251.616 38.037C250.791 35.52 249.241 34.104 247.516 32.179C247.016 31.622 247.176 31.784 246.696 30.978C247.131 29.971 247.491 29.714 248.426 29.163L250.496 28.677C266.401 44.676 283.036 59.9205 298.826 76.0305Z" fill="#3CB49A"/>
<path d="M299.351 -23.1551C290.621 -14.9681 282.051 -6.41208 273.601 2.07092C268.196 7.50042 262.556 14.5569 256.161 18.6859L253.901 19.4784C252.816 18.3054 252.691 17.7079 252.726 16.0744C252.746 15.2749 252.916 14.4494 253.061 13.6629C257.516 9.56291 261.731 5.18441 266.131 1.01991C269.881 -2.52959 273.886 -5.80708 277.586 -9.41358C281.276 -13.0171 284.496 -17.0916 288.286 -20.5976C291.786 -23.8321 294.881 -23.3101 299.351 -23.1551Z" fill="#3CB49A"/>
<path d="M61.9258 -3.45861C62.3908 -2.21411 63.0658 -1.35111 62.5608 -0.0816135C61.2858 -0.189613 59.6909 -1.3646 58.9009 -2.3581C58.6159 -2.7141 58.5409 -3.2026 58.2759 -3.5731C58.0909 -3.8361 57.5908 -4.21361 57.3258 -4.42611L56.3409 -4.59761C48.8309 1.33439 41.0508 10.2594 33.7508 17.0024C32.2408 18.3984 30.2708 20.7079 28.5608 21.7054C27.7058 22.2054 26.9259 22.2119 25.9709 22.0389C25.0759 21.8764 24.5808 21.5409 23.8908 20.9989C23.6108 19.7279 23.9459 19.1999 24.6509 18.1644C24.9909 17.6654 25.4558 17.2169 25.8708 16.7824L27.1509 15.5519C31.5159 11.1949 35.9708 7.16839 39.9258 2.40789L44.2759 -2.3841C46.3359 -4.5476 48.4859 -6.47061 50.7709 -8.39111L51.1908 -8.4226C51.4608 -8.5911 51.7909 -8.82711 52.1009 -8.89411C53.4059 -9.17661 54.1559 -8.47361 55.2059 -7.85461C57.3109 -5.95411 59.9408 -5.66611 61.9258 -3.45861ZM52.9158 -6.87161C50.2458 -5.24111 46.8058 -1.35861 45.7658 1.64489C45.6608 1.94639 45.6258 2.26689 45.5558 2.57789C44.1108 3.66839 43.1858 4.55489 42.2008 6.07639C44.0608 5.36389 44.6208 4.22239 45.5558 2.57789L45.9109 2.4764C47.4459 0.6064 53.4308 -5.49411 53.9358 -6.99461L52.9158 -6.87161ZM43.1808 5.64139C37.6158 8.03739 30.1959 14.4719 26.8459 19.4724L26.7259 19.9069L27.0758 20.3704L28.2308 19.4929C32.8958 14.3924 38.0558 10.2259 43.1808 5.64139ZM44.6858 0.199392L45.1408 -0.6486L44.6158 -0.132106L44.6858 0.199392Z" fill="#3CB49A"/>
<path d="M53.9359 -6.99457C53.4309 -5.49407 47.4459 0.60644 45.9109 2.47644L45.5558 2.57793C45.6258 2.26693 45.6609 1.94643 45.7659 1.64493C46.8059 -1.35857 50.2458 -5.24107 52.9158 -6.87157L53.9359 -6.99457Z" fill="#3CB49A" fill-opacity="0.717647"/>
<path d="M45.5558 2.57794C44.6208 4.22244 44.0609 5.36395 42.2009 6.07645C43.1859 4.55495 44.1108 3.66844 45.5558 2.57794Z" fill="#3CB49A" fill-opacity="0.823529"/>
<path d="M26.8459 19.4724C30.1959 14.4719 37.6158 8.03742 43.1808 5.64142C38.0558 10.2259 32.8958 14.3924 28.2308 19.4929L26.8459 19.4724Z" fill="#3CB49A" fill-opacity="0.0627451"/>
<path d="M106.401 14.096C105.321 14.584 104.521 14.935 103.651 15.764C100.641 13.3225 97.5909 10.879 94.7859 8.20596C91.1559 5.23846 87.9809 1.41746 84.6809 -1.92304C80.3609 -6.29454 75.5359 -10.608 71.6859 -15.4005L71.1859 -15.961C70.0959 -16.6805 69.0309 -17.4645 67.8159 -17.9695L67.4359 -18.352C65.0109 -20.9015 62.4159 -24.2965 59.2159 -25.8115C59.7959 -26.476 60.5459 -26.948 61.4409 -26.998C66.0909 -27.256 88.9159 -2.79353 93.7609 1.69397C97.2559 4.53147 100.351 8.04796 103.516 11.2535C104.231 12.423 105.361 13.2245 106.401 14.096Z" fill="#3CB49A"/>
<path d="M106.401 14.0959C105.321 14.5839 104.521 14.9349 103.651 15.7639C100.641 13.3224 97.5909 10.8789 94.7859 8.2059C95.8809 8.6714 96.9259 9.1559 98.1109 9.3539C97.0859 5.9119 93.9959 6.28291 93.7609 1.69391C97.2559 4.53141 100.351 8.0479 103.516 11.2534C104.231 12.4229 105.361 13.2244 106.401 14.0959Z" fill="#3CB49A"/>
<path d="M107.851 39.08C100.366 46.5355 92.5159 53.4695 84.9109 60.771C79.6359 65.8375 74.6459 71.411 68.9759 76.029C67.0359 77.61 63.9108 80.475 61.3558 80.547C60.6908 80.566 60.5309 80.532 59.8959 80.47C63.2359 77.5845 66.7058 74.862 69.8658 71.778C73.7958 67.9445 77.2408 63.631 81.0508 59.6745C86.9308 53.564 93.1558 47.95 99.5558 42.3895C101.821 40.421 104.916 38.2805 106.336 35.606L106.556 35.556L107.851 39.08Z" fill="#3CB49A"/>
<path d="M23.8658 -13.6955L26.4459 -10.985C29.5409 -12.348 35.6409 -21.888 38.4359 -21.871C35.7909 -17.6105 31.1309 -12.181 27.2159 -9.14701C25.8509 -10.152 18.0209 -16.728 17.7109 -16.8345C17.4109 -16.9385 17.0759 -16.8015 16.7559 -16.785C15.9559 -15.913 15.8658 -15.861 15.7308 -14.696C18.3308 -11.6735 24.4859 -8.86301 25.3459 -4.94901C23.2159 -2.64801 12.4708 6.89649 10.0458 7.07299C12.1008 1.89349 19.0609 -2.66301 23.6909 -5.42901C20.4959 -7.69051 16.9759 -10.857 13.1609 -11.88C11.8109 -11.5995 11.8509 -11.581 11.0209 -10.4735C10.8009 -8.95002 10.4959 -8.14051 11.6359 -6.86701C12.4209 -5.99501 13.9059 -5.09251 15.0809 -5.04801C15.6059 -5.02801 16.0959 -5.14252 16.6009 -5.23652C16.5509 -4.11652 16.5209 -4.02301 15.8459 -3.12701C12.8159 -2.97051 10.8708 -6.56802 7.87085 -6.59802C7.46085 -6.06702 7.12083 -5.65352 6.85583 -5.03152L6.12585 -4.33051C5.15585 -3.66001 4.35083 -3.21801 3.23083 -2.83901L2.40588 -3.28301C2.44088 -3.44951 2.45586 -3.62101 2.51086 -3.78201C3.93086 -7.99551 13.8559 -16.4425 17.8259 -18.939C19.3609 -16.886 21.6008 -14.9015 23.8658 -13.6955Z" fill="#3CB49A" fill-opacity="0.976471"/>
<path d="M-6.99915 48.9459C-4.15915 49.0509 4.23585 41.5124 7.68085 39.9329L8.04584 40.6554C1.62084 47.6464 -20.7042 70.5574 -28.0692 73.6904L-29.2941 73.6169L-29.6442 73.0614C-27.9242 69.2749 -6.36917 52.4139 -7.20917 50.4524C-7.60917 49.5184 -8.55416 48.9244 -9.32916 48.3119L-6.99915 48.9459Z" fill="#3CB49A" fill-opacity="0.705882"/>
<path d="M-7.3642 3.51738C-6.9342 3.00888 -7.1542 3.35537 -6.9242 2.36937C-7.4692 1.89387 -7.9392 1.56787 -8.6142 1.29237C-9.9042 0.764873 -10.9792 0.258871 -12.0592 -0.647629C-15.2642 -3.34613 -29.1242 -17.0896 -29.3292 -20.1691L-28.5892 -20.6121C-19.9942 -18.3531 -10.1492 -1.39512 -0.139222 3.21738L0.605773 3.55537C-0.00922718 4.52837 -0.609193 4.85237 -1.60919 5.40137C-2.64919 4.97537 -3.36919 4.68138 -4.48419 4.48488C-4.82919 5.20488 -5.13918 5.88138 -5.40418 6.63588L-5.72418 4.61037L-6.4242 4.16487C-6.6592 3.85587 -6.9892 3.62938 -7.3642 3.51738Z" fill="#3CB49A"/>
<path d="M3.63092 17.3339C0.33592 19.6029 -1.3341 20.6499 -3.0741 24.4404C-7.4341 20.7799 -11.264 16.5249 -14.774 12.0499C-14.614 10.9699 -14.3791 10.7204 -13.7441 9.86842L-13.9641 9.20341C-13.7691 7.43591 -13.6541 6.37342 -12.5441 4.95392C-11.5091 6.23192 -10.4691 7.52391 -9.28406 8.66641C-7.50906 10.3774 -0.394058 16.7949 1.71594 16.7739L3.63092 17.3339ZM-6.79407 14.5409C-5.48907 16.1424 -4.3241 17.8939 -2.4491 18.8459C-1.3491 18.6844 -1.73906 18.9384 -1.15906 18.3099C-2.78906 16.7734 -4.2591 15.2739 -6.2691 14.2389L-6.79407 14.5409Z" fill="#3CB49A"/>
<path d="M256.161 18.686C254.366 20.485 249.776 24.1715 249.811 26.757C249.826 27.6465 250.026 27.96 250.496 28.677L248.426 29.163C247.491 29.714 247.131 29.971 246.696 30.978C247.176 31.784 247.016 31.622 247.516 32.179C249.241 34.104 250.791 35.52 251.616 38.037C247.821 34.549 243.921 31.1275 240.296 27.4585C239.631 26.533 239.521 26.6305 239.496 25.408L241.401 23.7915L241.741 23.33L247.046 19.0825C247.986 18.0135 249.476 17.0245 250.591 16.109C251.206 15.2235 252.271 14.417 253.061 13.663C252.916 14.4495 252.746 15.275 252.726 16.0745C252.691 17.708 252.816 18.3055 253.901 19.4785L256.161 18.686Z" fill="#3CB49A" fill-opacity="0.705882"/>
<path d="M248.426 29.1629C247.491 29.7139 247.131 29.971 246.696 30.978C247.176 31.784 247.016 31.622 247.516 32.179C249.241 34.104 250.791 35.5199 251.616 38.0369C247.821 34.5489 243.921 31.1274 240.296 27.4584C239.631 26.5329 239.521 26.6304 239.496 25.4079L241.401 23.7914L241.741 23.33C244.061 24.1515 243.936 25.6864 245.691 26.9489L246.391 26.3569L248.626 24.2975C249.071 25.7195 248.601 27.6654 248.426 29.1629Z" fill="#3CB49A"/>
<path d="M241.401 23.7915C242.771 24.5955 243.171 24.7435 243.966 26.1715L243.611 27.2495C242.156 27.907 241.821 27.7215 240.296 27.4585C239.631 26.533 239.521 26.6305 239.496 25.408L241.401 23.7915Z" fill="#3CB49A"/>
<path d="M247.046 19.0825C247.071 20.5765 245.861 25.469 246.391 26.357L245.691 26.949C243.936 25.6865 244.061 24.1515 241.741 23.33L247.046 19.0825Z" fill="#3CB49A"/>
<path d="M250.591 16.109C249.751 18.816 248.791 21.448 248.626 24.2975L246.391 26.357C245.861 25.469 247.071 20.5765 247.046 19.0825C247.986 18.0135 249.476 17.0245 250.591 16.109Z" fill="#3CB49A"/>
<path d="M92.8509 31.8959C91.0959 33.8949 89.2909 36.3549 87.2259 37.9889L85.8658 39.2434L80.5159 44.3919L78.5009 46.5594L78.2958 47.1184C74.6208 50.9044 71.0759 54.8269 66.8459 58.0009L67.7709 56.0694C66.0709 56.1884 65.6958 58.4454 63.9308 58.3404C63.8758 57.0494 64.2958 56.5999 64.8608 55.4924C64.9058 55.3979 64.9259 55.2904 64.9609 55.1894L67.0159 53.0979C70.8959 50.0009 74.3258 46.3939 77.6658 42.7409C82.1108 38.3584 86.1109 33.5844 90.9759 29.6579C91.5059 30.4429 92.2309 31.1709 92.8509 31.8959Z" fill="#3CB49A"/>
<path d="M127.576 3.59894C127.891 3.80394 128.326 4.24943 128.536 4.55493C128.611 4.66643 128.641 4.80394 128.696 4.92844C129.661 4.91694 130.461 4.88543 131.406 5.09993L130.626 6.50243C125.326 8.35693 118.976 15.9304 116.836 21.1119C116.571 21.7604 116.706 22.2104 116.561 22.8609C116.496 23.1374 116.366 23.3929 116.266 23.6589C115.741 23.4389 115.191 23.2564 114.716 22.9419C111.926 20.0119 109.151 17.0634 106.401 14.0959C105.361 13.2244 104.231 12.4229 103.516 11.2534L104.111 11.0914C106.256 10.8059 108.841 8.07544 110.636 6.78844C110.406 8.50194 110.181 10.1984 109.816 11.8889L108.576 13.8829L108.866 14.6549C112.236 14.5774 116.566 8.52094 119.651 6.68944C119.446 8.02094 118.521 8.91793 117.701 9.93143C116.136 11.3804 112.246 14.7284 111.736 16.6204C112.311 17.7879 112.696 18.4004 113.741 19.1849C114.631 19.0174 115.101 18.7909 115.836 18.2264C117.251 17.1359 119.661 14.1464 119.876 12.4439L118.956 12.2534L118.731 11.5884C121.281 9.95244 123.581 7.96293 125.566 5.67943L127.576 3.59894Z" fill="#3CB49A" fill-opacity="0.0196078"/>
<path d="M282.076 73.0735C282.516 74.196 282.801 74.2645 282.386 75.454C280.686 76.008 279.491 75.6055 277.941 74.825C276.716 74.21 275.926 72.7825 275.176 71.6865C269.746 66.141 264.981 60.342 258.931 55.398L260.951 53.145C267.706 56.21 277.776 66.9175 282.076 73.0735Z" fill="#3CB49A"/>
<path d="M49.7808 -13.5241C41.6058 -4.89612 32.3908 3.03037 24.5208 11.8809L22.7508 14.3484C21.5858 15.2159 20.6508 16.0784 19.6458 17.1309C18.9208 16.6839 18.0058 16.4499 17.7958 15.5779C17.6308 14.8769 17.7108 14.5744 17.9108 13.9089C19.7958 12.9604 21.2008 11.2914 22.6758 9.81337C31.0508 1.59737 38.9858 -7.64413 47.7858 -15.3461C48.4058 -14.6596 49.0708 -14.1156 49.7808 -13.5241Z" fill="#3CB49A"/>
<path d="M117.766 24.8904L118.041 25.4839L116.911 28.7204C114.196 32.6444 111.646 36.1394 107.851 39.0799L106.556 35.5559C107.161 34.2674 108.021 33.2899 107.591 31.8949C106.406 32.6924 106.121 33.8154 105.631 35.0899L103.951 35.6849L102.931 35.2074C102.281 34.3749 101.896 33.6959 101.521 32.7089L101.981 31.7834C103.231 31.2189 104.876 30.6759 105.731 29.5559C105.871 29.3719 105.996 29.1759 106.131 28.9859C107.051 28.6144 107.091 28.5784 107.641 27.8324L107.056 26.5153C107.891 25.4908 109.016 24.8104 110.091 24.0609L112.301 25.2284L110.736 27.0829C109.896 28.1194 108.991 28.9554 108.976 30.3634C110.331 29.8144 110.756 28.6754 111.561 27.4894L113.516 25.3979C115.306 24.3009 115.861 24.4699 117.766 24.8904Z" fill="#3CB49A"/>
<path d="M51.0809 -12.3651L51.8459 -11.455C51.5559 -10.8555 51.2659 -10.0916 50.9009 -9.54256C48.0359 -7.66706 45.6959 -5.29055 43.4609 -2.71605L39.1559 2.05995L26.6359 14.4839L24.9808 16.3884C23.8358 17.6094 23.1309 18.7519 21.5159 19.2524C20.4959 18.6719 20.2009 18.1534 19.6459 17.1309C20.6509 16.0784 21.5859 15.2159 22.7509 14.3484C23.4809 13.8644 24.1559 13.2669 24.8409 12.7234C29.2659 8.41645 47.0509 -11.0341 51.0809 -12.3651Z" fill="#3CB49A"/>
<path d="M8.97589 60.3475L10.2009 59.58C12.5109 58.1195 17.8008 55.447 18.4158 52.7425L17.7358 52.2625C14.3858 53.661 12.1158 57.072 8.73584 58.194L8.45087 57.4775C8.69087 57.0545 8.78086 56.8535 9.06586 56.489C10.6759 54.4115 14.7609 51.618 17.4709 51.475C18.8159 51.404 19.4108 51.7995 20.4208 52.6015L20.4308 53.538C17.9108 56.923 12.4659 60.3815 8.59589 61.9575L13.0859 66.585L10.6058 67.891C9.59583 63.7385 1.88087 57.824 -1.67413 55.6055C1.04087 53.8675 3.83584 52.068 6.11084 49.7515C7.92084 47.903 8.80586 45.72 11.1309 44.3845C10.7459 48.661 3.60585 52.356 3.49585 56.3075C4.87585 58.2025 6.99089 59.182 8.97589 60.3475Z" fill="#3CB49A" fill-opacity="0.956863"/>
<path d="M130.626 6.50238C130.471 9.92788 129.956 12.8889 127.546 15.4919C126.466 16.3094 125.296 16.9744 124.811 18.2974L125.996 19.0829C122.941 20.7694 120.641 23.0854 117.766 24.8904C115.861 24.4699 115.306 24.3009 113.516 25.3979L112.301 25.2284L110.091 24.0609L111.171 23.4909C111.916 23.9779 112.446 24.2619 113.321 24.4444L114.716 22.9419C115.191 23.2564 115.741 23.4389 116.266 23.6589C116.366 23.3929 116.496 23.1374 116.561 22.8609C116.706 22.2104 116.571 21.7604 116.836 21.1119C118.976 15.9304 125.326 8.35688 130.626 6.50238Z" fill="#3CB49A"/>
<path d="M139.486 25.5284C139.096 26.3624 138.706 27.1859 138.266 27.9929L138.826 29.3484C138.166 31.7384 137.266 32.6199 135.351 34.1294C135.161 34.2824 134.971 34.4399 134.776 34.5924C133.326 35.7289 131.706 36.8079 129.826 36.5784C130.221 34.8254 131.506 33.9499 132.956 33.0319C134.181 32.2679 135.416 31.5209 136.661 30.7904C134.586 29.4889 132.306 26.8059 130.066 26.3764C128.631 26.9989 127.896 28.1954 126.976 29.3984C125.716 28.9574 125.471 29.0714 124.856 27.9074C125.866 25.5664 130.466 23.1654 132.821 22.1949L133.211 24.1859L133.441 25.1794C134.401 26.2779 134.971 27.0089 136.456 27.3749L137.196 26.7889C136.921 24.8624 135.951 24.1314 134.726 22.6539L133.706 21.6704C132.386 20.1709 131.091 18.6539 129.651 17.2649L132.336 16.7588C135.386 18.7778 137.446 22.5639 139.486 25.5284Z" fill="#3CB49A"/>
<path d="M59.7458 73.2385C60.5308 72.5135 61.1708 71.573 62.2508 71.457C60.5758 74.068 57.1308 76.291 56.0158 78.9965L55.8958 79.195C46.6308 68.4205 35.9708 58.1885 25.8758 48.1795C19.4558 41.817 12.7208 36.664 7.92578 28.845L8.76581 28.494L10.1008 29.311C10.4958 29.947 11.2158 30.521 11.7458 31.056C13.6308 34.095 15.8008 37.428 18.7608 39.5035C27.2608 47.438 34.5658 56.5815 43.3558 64.2265C45.4758 66.2225 47.3858 68.415 49.3308 70.5835L49.9858 71.592C50.1558 71.7745 50.3008 71.9785 50.4858 72.1395C51.6208 73.117 52.2608 72.905 53.6858 72.86C53.5908 73.216 53.4158 73.794 53.4358 74.1545C53.5008 75.565 54.6958 76.1585 55.6708 76.9675C57.2208 75.969 58.4608 74.55 59.7458 73.2385Z" fill="#3CB49A" fill-opacity="0.0470588"/>
<path d="M106.336 35.6059C104.916 38.2804 101.821 40.4209 99.5558 42.3894C93.1558 47.9499 86.9308 53.5639 81.0508 59.6744C77.2408 63.6309 73.7958 67.9444 69.8658 71.7779C66.7058 74.8619 63.2359 77.5844 59.8959 80.4699L58.9808 79.4224C61.3608 76.1144 66.5259 73.1824 69.8459 70.7384L71.2259 69.0509L71.4109 68.1359C72.5109 67.2114 73.3309 66.0599 74.2059 64.9304C78.7909 59.5509 83.7009 54.8239 88.9609 50.1214C91.8459 47.2144 98.6759 40.5369 101.716 38.2874C102.881 37.4259 103.241 36.9324 103.951 35.6849L105.631 35.0899L106.336 35.6059Z" fill="#3CB49A" fill-opacity="0.0588235"/>
<path d="M25.8708 16.7824C25.4558 17.2169 24.9909 17.6654 24.6509 18.1644C23.9459 19.1999 23.6109 19.7279 23.8909 20.9989C24.5809 21.5409 25.0759 21.8764 25.9709 22.0389C26.9259 22.2119 27.7059 22.2054 28.5609 21.7054C30.2709 20.7079 32.2409 18.3984 33.7509 17.0024C41.0509 10.2594 48.8309 1.3344 56.3409 -4.5976L57.3259 -4.4261C52.8009 2.0089 44.3508 8.7824 38.5408 14.2729C35.3958 17.2424 32.4759 20.4679 29.2709 23.3574C28.3659 24.3469 27.5559 25.3799 26.4359 26.1229C23.8009 23.6764 20.9908 21.2814 18.6708 18.5314C18.7608 17.5949 18.0709 16.7634 17.1359 16.6809L16.0059 16.3699C15.9709 14.9839 16.8059 14.4324 17.6459 13.3804L17.9109 13.9089C17.7109 14.5744 17.6308 14.8769 17.7958 15.5779C18.0058 16.4499 18.9209 16.6839 19.6459 17.1309C20.2009 18.1534 20.4959 18.6719 21.5159 19.2524C23.1309 18.7519 23.8358 17.6094 24.9808 16.3884L25.8708 16.7824Z" fill="#3CB49A" fill-opacity="0.0431373"/>
<path d="M-16.8691 47.4074C-13.5491 42.5959 -7.40417 32.5644 -1.33417 31.0694C0.0208325 31.4414 0.0108911 31.5599 0.850891 32.7059C0.310891 36.5684 -10.6092 42.7564 -13.0192 46.9584C-13.1542 47.1894 -13.2741 47.4269 -13.3991 47.6609C-14.8041 47.8894 -15.5241 47.8669 -16.8691 47.4074Z" fill="#3CB49A"/>
<path d="M103.651 15.7639L107.031 19.2669C106.041 20.0139 105.086 20.7004 104.221 21.5954L102.881 21.4549C104.061 20.2509 104.746 19.4674 105.246 17.8424C104.456 17.5419 103.756 17.2819 103.031 16.8449C101.306 14.4584 97.0358 11.8244 94.6508 9.77794C89.0808 4.99844 83.1658 -0.431568 78.5608 -6.16257C78.0458 -6.80557 78.3008 -6.55756 77.5808 -7.02406C75.6008 -8.98206 73.7308 -11.1591 71.0208 -12.0511L70.2458 -11.8676C70.7308 -9.50957 73.6758 -7.45107 75.4258 -5.88957L75.0008 -5.29506C72.8358 -7.12156 70.4908 -9.95057 68.0958 -11.3346C68.1008 -12.7621 70.1058 -13.6531 71.1008 -14.7451L71.6858 -15.4006C75.5358 -10.6081 80.3608 -6.29457 84.6808 -1.92307C87.9808 1.41743 91.1558 5.23843 94.7858 8.20593C97.5908 10.8789 100.641 13.3224 103.651 15.7639Z" fill="#3CB49A" fill-opacity="0.0392157"/>
<path d="M121.921 46.8459C128.521 52.1564 132.941 57.3835 136.396 65.14L136.586 65.5699C130.561 59.8194 124.096 54.5334 117.891 48.9794C119.261 48.3084 120.591 47.5939 121.921 46.8459Z" fill="#3CB49A"/>
<path d="M134.891 47.6619L133.541 48.2204C128.346 43.8934 119.031 36.1875 117.761 29.3035C117.481 29.0995 117.246 28.7854 116.911 28.7204L118.041 25.4839C121.351 31.2819 130.366 42.1264 134.891 47.6619Z" fill="#3CB49A" fill-opacity="0.705882"/>
<path d="M118.156 4.39246C118.411 4.42046 118.666 4.48496 118.921 4.47646C119.356 4.46146 119.766 4.26545 120.191 4.20995C121.991 3.97595 124.116 4.62295 125.566 5.67945C123.581 7.96295 121.281 9.95246 118.731 11.5885L118.091 11.7139L117.701 9.93145C118.521 8.91795 119.446 8.02096 119.651 6.68946C116.566 8.52096 112.236 14.5775 108.866 14.655L108.576 13.883L109.816 11.889C112.216 9.30395 115.241 6.37546 118.156 4.39246Z" fill="#3CB49A"/>
<path d="M101.646 -1.44464C102.456 -0.652142 103.106 0.237354 103.801 1.13235L100.341 2.25235C92.2309 -4.58515 84.1709 -12.2181 77.2109 -20.2166L77.3359 -20.4291C82.2609 -16.7756 87.5558 -12.5016 91.7958 -8.06714L93.3658 -7.12914C93.6008 -6.43414 93.6309 -5.96464 94.1909 -5.46564C95.9659 -3.87964 99.1809 -1.29014 101.646 -1.44464Z" fill="#3CB49A" fill-opacity="0.956863"/>
<path d="M38.3409 42.2149C43.9059 48.2859 50.7009 53.3074 56.1009 59.4589L55.2659 62.1444L53.7209 60.8034L52.3809 59.7089C51.6159 59.0054 50.7809 58.3224 50.0709 57.5614C49.5559 56.2094 49.1109 55.9389 48.0359 55.0174C46.0059 53.1939 43.9358 51.4149 42.1658 49.3299L37.7659 44.9099L37.0709 43.8344L38.3409 42.2149Z" fill="#3CB49A"/>
<path d="M115.361 33.8674C117.141 36.7244 119.296 41.6774 122.726 42.5619C123.706 42.8184 124.691 43.0614 125.681 43.2904C125.146 44.5369 124.181 44.9754 123.116 45.7709L120.931 44.0944C119.286 42.5074 117.811 41.2274 115.781 40.1549L115.216 40.3129C115.631 41.5304 116.041 42.2289 116.881 43.2019L117.031 45.2244L116.571 45.6559C115.486 45.1019 115.481 44.8014 114.256 45.1594C113.001 44.3094 111.776 42.7664 110.676 41.6839C112.701 39.1484 114.076 36.8314 115.361 33.8674Z" fill="#3CB49A" fill-opacity="0.988235"/>
<path d="M134.961 -8.95306C133.101 -4.21606 130.536 -0.513562 127.576 3.59894L125.566 5.67943C124.116 4.62293 121.991 3.97593 120.191 4.20993C119.766 4.26543 119.356 4.46144 118.921 4.47644C118.666 4.48494 118.411 4.42044 118.156 4.39244C124.441 0.93244 129.486 -4.37006 134.961 -8.95306Z" fill="#3CB49A"/>
<path d="M111.776 48.5649C114.626 50.0449 124.461 62.9155 126.316 66.2325C123.086 64.163 119.921 61.774 117.146 59.1245C116.121 58.1465 113.991 54.9894 112.806 55.0199L112.696 55.2789L111.681 54.461C111.561 53.4435 111.481 53.002 110.796 52.2285C110.991 50.946 111.366 49.7894 111.776 48.5649Z" fill="#3CB49A"/>
<path d="M58.7659 59.1935L59.0959 60.6214L58.4958 61.0079C57.5608 60.5564 56.8259 60.2105 56.1009 59.459C50.7009 53.3075 43.9059 48.2859 38.3409 42.2149C34.0559 38.0474 30.3258 33.6114 25.6808 29.8134C24.5008 30.0499 23.2508 31.5615 22.3658 31.101C23.1108 29.9735 23.9609 28.9279 24.3259 27.6194C35.2159 33.8924 48.2109 55.0685 58.7659 59.1935Z" fill="#3CB49A" fill-opacity="0.054902"/>
<path d="M104.111 11.0914C104.011 10.4799 103.916 10.3369 104.086 9.72542C105.576 4.42942 117.391 -3.09158 122.051 -6.25458C118.676 -1.50658 114.451 2.41192 110.636 6.78842C108.841 8.07542 106.256 10.8059 104.111 11.0914Z" fill="#3CB49A"/>
<path d="M0.605835 3.55548C3.35583 5.64148 7.85088 8.83897 8.34088 12.41C7.81588 14.4915 5.28086 16.0945 3.63086 17.334L1.71588 16.774C3.35588 15.2345 4.97586 13.7185 6.76086 12.3405L6.95087 11.5485C5.96087 10.6975 5.92587 10.472 4.64087 10.4685C3.38087 11.776 2.59085 13.4525 0.930847 14.1585L-0.179139 13.81L-0.369141 12.962C1.03586 11.409 3.24587 10.7205 4.20087 8.97447L3.69586 8.33897L1.98584 8.14398L1.31586 7.70848C0.385857 6.81498 -0.429131 5.97697 -1.60913 5.40147C-0.609131 4.85247 -0.00916485 4.52848 0.605835 3.55548Z" fill="#3CB49A" fill-opacity="0.976471"/>
<path d="M-9.3291 48.312L-10.2891 46.5979C-9.59406 45.8149 -9.86911 45.904 -9.08411 45.621C-3.44411 43.595 -1.39408 37.8269 3.69592 35.3799C4.78592 35.8834 5.39091 36.1959 6.12091 37.1619L5.81091 37.776C1.92091 39.049 -4.82406 44.3539 -6.65906 48.1584C-6.78406 48.4164 -6.88409 48.6835 -6.99909 48.946L-9.3291 48.312Z" fill="#3CB49A"/>
<path d="M53.1458 61.6235C52.9658 62.347 53.0808 62.7185 52.4108 63.1275C51.7208 63.5495 51.9908 63.412 51.0958 63.5575L48.7108 61.56L46.3558 59.2115C44.8558 58.0055 42.6958 56.477 42.2558 54.5145C41.8208 53.653 41.2558 52.829 40.7508 52.0035C41.3908 52.148 41.8258 52.2415 42.4908 52.1345C42.6458 52.1095 42.7958 52.069 42.9508 52.036C44.4858 52.728 46.1908 54.6615 47.5008 55.7925C47.9158 56.893 48.1208 57.054 49.0358 57.812L49.4158 58.506L51.6608 60.168L53.0858 61.27L53.1458 61.6235Z" fill="#3CB49A"/>
<path d="M26.7909 4.04743C30.1209 -0.0425728 34.5059 -3.43758 38.2459 -7.17108C41.0659 -9.98958 43.6859 -13.5936 46.8159 -16.0086C47.7309 -16.7136 47.2809 -16.6001 48.2859 -16.4861L47.7859 -15.3461C38.9859 -7.64408 31.0509 1.59742 22.6759 9.81342L22.0409 8.96842C23.4659 7.63642 24.7959 6.16043 26.1609 4.76293L26.7909 4.04743Z" fill="#3CB49A" fill-opacity="0.0980392"/>
<path d="M114.716 22.9419L113.321 24.4444C112.446 24.2619 111.916 23.9779 111.171 23.4909L107.816 20.5549L107.031 19.2669L103.651 15.7639C104.521 14.9349 105.321 14.5839 106.401 14.0959C109.151 17.0634 111.926 20.0119 114.716 22.9419Z" fill="#3CB49A"/>
<path d="M1.9859 8.14387L-1.35407 12.0369C-3.84907 10.5759 -5.58405 8.85237 -7.83905 7.15037C-8.57405 7.17237 -9.25409 6.75886 -9.56909 6.09586C-9.88909 5.43336 -9.78408 4.64587 -9.30408 4.08787C-8.82908 3.52987 -8.06407 3.30637 -7.36407 3.51737C-6.98907 3.62937 -6.65907 3.85586 -6.42407 4.16486L-5.72406 4.61036L-5.40405 6.63587C-4.56405 7.15887 -3.69406 7.71786 -2.78406 8.11336C-1.31906 8.74786 -0.0740821 8.23386 1.31592 7.70836L1.9859 8.14387Z" fill="#3CB49A" fill-opacity="0.705882"/>
<path d="M118.956 12.2535L119.876 12.444C119.661 14.1465 117.251 17.136 115.836 18.2265C115.101 18.791 114.631 19.0175 113.741 19.185C112.696 18.4005 112.311 17.788 111.736 16.6205C112.246 14.7285 116.136 11.3805 117.701 9.93146L118.091 11.714C117.041 12.895 115.856 13.974 115.416 15.5305C116.831 15.0655 117.981 13.3675 118.956 12.2535Z" fill="#3CB49A" fill-opacity="0.984314"/>
<path d="M92.8509 31.8959L93.1609 31.1765C95.4659 33.3235 98.3359 35.264 100.186 37.7775C99.1859 37.632 98.2258 37.4445 97.2408 37.2085C94.0258 38.9315 90.9959 41.4209 88.5109 44.0844L88.0959 43.4684C89.3509 42.0449 92.5108 37.8075 94.1808 37.166C95.5458 36.6405 95.6558 37.7074 96.5508 36.1414C95.8458 35.0059 95.2759 34.377 94.2009 33.586C91.4209 33.985 89.4458 37.5435 87.2958 39.3235L87.2259 37.989C89.2909 36.355 91.0959 33.8949 92.8509 31.8959Z" fill="#3CB49A" fill-opacity="0.0392157"/>
<path d="M49.7809 -13.5241L50.3909 -13.4406L51.0809 -12.3651C47.0509 -11.0341 29.2659 8.41639 24.8409 12.7234L24.5209 11.8809C32.3909 3.03039 41.6059 -4.89611 49.7809 -13.5241Z" fill="#3CB49A" fill-opacity="0.0705882"/>
<path d="M246.106 -5.523C246.016 -3.45799 247.531 -2.472 247.186 -0.624496C245.736 -1.1075 245.591 -2.66449 244.326 -3.31099L243.706 -2.66199L243.786 -1.534L244.596 -1.03349C245.251 -0.621493 245.726 -0.273483 246.201 0.351517L245.921 0.955505L244.246 0.884506C244.636 2.44001 246.191 3.71351 247.281 4.85701C246.606 6.46451 245.826 9.293 244.306 10.201C244.636 8.9485 246.326 5.69801 245.831 4.86401C244.251 2.19401 243.251 2.93501 243.636 -0.586991L242.941 -1.08049C241.261 0.0150096 240.341 0.887004 238.271 1.0135C240.906 -0.945996 243.291 -3.69099 245.706 -5.95349L246.106 -5.523Z" fill="#3CB49A" fill-opacity="0.0705882"/>
<path d="M88.0958 43.4684L88.5108 44.0844L83.3108 50.2834C79.7058 53.6054 75.9558 56.821 73.0258 60.7625C72.7108 61.183 72.3808 61.5894 72.0558 62.0009L70.8958 62.1364L70.3358 61.6609C73.4408 56.7314 79.3308 52.1529 83.6858 48.2939L84.2558 47.543C85.4658 46.1365 86.8208 44.8169 88.0958 43.4684Z" fill="#3CB49A" fill-opacity="0.0823529"/>
<path d="M69.3909 2.22649L68.4959 2.77898C66.4009 0.537476 64.3959 -1.61903 61.9259 -3.45853C59.9409 -5.66603 57.3109 -5.95402 55.2059 -7.85452C54.1559 -8.47352 53.406 -9.17653 52.101 -8.89403C51.791 -8.82703 51.4609 -8.59102 51.1909 -8.42252L50.7709 -8.39102L50.9009 -9.54253C51.2659 -10.0915 51.5559 -10.8555 51.8459 -11.455C54.9309 -9.58752 57.7909 -7.27002 61.1809 -5.97652C64.2959 -3.84352 66.8509 -0.565014 69.3909 2.22649Z" fill="#3CB49A" fill-opacity="0.0509804"/>
<path d="M79.0359 47.539C75.8209 52.421 69.2509 58.2785 64.2809 61.247L64.0959 60.6995L64.7959 60.232L64.9259 59.502L66.8459 58.001C71.0759 54.827 74.6209 50.9045 78.2959 47.1185L79.0359 47.539Z" fill="#3CB49A" fill-opacity="0.101961"/>
<path d="M90.5659 27.7239L91.2109 27.5839L91.7159 28.0479L90.9759 29.6579C86.1109 33.5844 82.1108 38.3584 77.6658 42.7409L77.0859 42.0159C81.8059 37.4804 85.8409 32.2799 90.5659 27.7239Z" fill="#3CB49A" fill-opacity="0.0862745"/>
<path d="M111.776 48.5649C111.366 49.7894 110.991 50.9459 110.796 52.2284C109.471 51.1684 107.331 49.7694 106.411 48.3429C105.636 47.1309 105.721 46.8419 106.076 45.5619L106.921 45.1014C108.696 45.4019 109.646 47.4284 111.211 48.3094C111.391 48.4104 111.586 48.4799 111.776 48.5649Z" fill="#3CB49A"/>
<path d="M121.776 45.665L121.921 46.846C120.591 47.594 119.261 48.3085 117.891 48.9795L114.256 45.1595C115.481 44.8015 115.486 45.102 116.571 45.656L117.031 45.2245L116.881 43.202L120.091 44.7245L121.776 45.665Z" fill="#3CB49A"/>
<path d="M39.9258 2.40787C35.9708 7.16837 31.5159 11.1949 27.1509 15.5519L26.6359 14.4839L39.1559 2.05988L39.9258 2.40787Z" fill="#3CB49A" fill-opacity="0.0705882"/>
<path d="M106.591 53.8975C106.316 54.771 106.186 55.0365 105.661 55.7265C103.111 56.9735 100.616 57.5465 97.8558 56.698C98.1358 56.002 98.4608 55.612 98.9258 55.0335C101.506 53.701 103.746 53.4655 106.591 53.8975Z" fill="#3CB49A"/>
<path d="M24.0759 27.1275C22.7409 27.704 21.4309 28.534 19.9609 28.4035C19.9809 28.163 20.0059 27.9235 20.0259 27.683C20.0709 26.989 20.0709 26.378 20.0209 25.689C18.1909 24.538 16.5659 23.7815 14.4609 23.3645C14.3859 23.3505 14.3309 23.2935 14.2659 23.258L15.5309 21.2855C17.9559 21.349 21.4159 25.8845 24.0759 27.1275Z" fill="#3CB49A" fill-opacity="0.0509804"/>
<path d="M14.0008 17.0529C13.9958 19.0784 13.7258 19.1694 12.2908 20.5434C11.3108 21.4864 10.2808 22.3039 9.36078 23.3199C8.28078 23.8659 7.05583 24.1694 6.66083 25.4474C6.57583 25.7254 6.57582 26.0229 6.53082 26.3104L6.16577 27.3824L4.37579 26.2739C4.41579 24.3414 12.2008 18.8644 14.0008 17.0529Z" fill="#3CB49A" fill-opacity="0.0352941"/>
<path d="M232.281 47.172L231.536 47.315C229.266 45.197 226.981 43.098 224.676 41.0185L224.811 39.945C226.856 38.1745 228.306 35.891 230.456 34.261C230.196 36.9765 227.536 38.9395 225.661 40.707C228.131 42.6405 230.216 44.828 232.281 47.172Z" fill="#3CB49A" fill-opacity="0.117647"/>
<path d="M221.961 37.2885C223.971 35.9165 225.846 34.499 227.731 32.955C226.446 34.552 223.986 36.8939 223.536 38.8669L224.811 39.9449L224.676 41.0184C222.006 38.8884 218.936 36.6994 217.201 33.6904C218.981 34.4899 220.486 36.0275 221.961 37.2885Z" fill="#3CB49A" fill-opacity="0.0431373"/>
<path d="M229.556 9.27893C229.641 9.49943 229.716 9.72243 229.806 9.94043C231.661 14.5024 236.336 16.4009 238.621 20.2119L238.296 21.0139L237.306 21.1819C234.561 18.4059 230.806 12.0159 228.206 10.3204L229.556 9.27893Z" fill="#3CB49A" fill-opacity="0.0862745"/>
<path d="M210.911 27.164C212.506 28.6065 216.916 31.773 217.201 33.6905C214.736 32.707 211.806 29.123 210.196 27.0155C211.511 25.065 213.891 23.458 215.611 21.8085L216.226 22.548C214.496 24.1515 212.751 25.6845 210.911 27.164Z" fill="#3CB49A" fill-opacity="0.0627451"/>
<path d="M77.6658 42.7409C74.3258 46.3939 70.8959 50.0009 67.0159 53.0979L66.5809 52.4184C70.2009 49.0709 73.7059 45.6014 77.0859 42.0159L77.6658 42.7409Z" fill="#3CB49A" fill-opacity="0.294118"/>
<path d="M111.171 23.4909L110.091 24.0609C109.016 24.8104 107.891 25.4909 107.056 26.5154C106.471 26.4299 105.821 26.1539 105.256 25.9724C104.831 25.4999 104.481 25.2979 104.386 24.6569L105.491 23.2809C105.496 23.2754 105.501 23.2679 105.501 23.2614C105.271 24.4789 105.356 23.8714 105.246 25.0834L106.501 25.2914L107.231 24.6844C107.981 23.0584 108.011 22.3369 107.816 20.5549L111.171 23.4909Z" fill="#3CB49A" fill-opacity="0.0470588"/>
<path d="M107.711 -3.03705L108.486 -2.26456C106.981 -0.565557 106.036 0.520446 103.801 1.13245C103.106 0.237446 102.456 -0.65205 101.646 -1.44455L107.711 -3.03705Z" fill="#3CB49A"/>
<path d="M120.931 44.0945L120.091 44.7245L116.881 43.202C116.041 42.229 115.631 41.5305 115.216 40.313L115.781 40.155C117.811 41.2275 119.286 42.5075 120.931 44.0945Z" fill="#3CB49A" fill-opacity="0.0470588"/>
<path d="M48.7109 61.56L48.2259 62.317C45.9359 60.1765 41.1608 56.709 39.9158 53.8925C40.7408 54.0435 41.4709 54.2049 42.2559 54.5144C42.6959 56.4769 44.8558 58.0055 46.3558 59.2115L48.7109 61.56Z" fill="#3CB49A" fill-opacity="0.105882"/>
<path d="M7.52081 3.15244L6.62579 4.01744C3.90579 3.17794 1.81082 1.02493 -0.224182 -0.878571L0.235779 -1.22907C2.98078 -0.165065 4.61581 2.23644 7.52081 3.15244Z" fill="#3CB49A" fill-opacity="0.741176"/>
<path d="M250.951 -2.49805C250.486 -0.382547 250.206 2.09295 248.516 3.52095L247.996 3.08295C247.971 0.814947 248.761 0.0119523 249.876 -1.89255L250.951 -2.49805Z" fill="#3CB49A" fill-opacity="0.0666667"/>
<path d="M67.0159 53.098L64.9609 55.1895C63.1909 56.5185 61.1809 58.346 59.0759 59.0385C60.6259 56.4175 64.1609 54.28 66.5809 52.4185L67.0159 53.098Z" fill="#3CB49A" fill-opacity="0.176471"/>
<path d="M134.891 47.662C136.481 49.215 138.161 50.5115 138.731 52.751C136.686 52.0845 135.036 49.762 133.541 48.2205L134.891 47.662Z" fill="#3CB49A" fill-opacity="0.890196"/>
<path d="M221.276 16.5504L221.146 18.4929C218.996 19.3174 218.016 21.2189 216.226 22.5479L215.611 21.8084C217.176 19.8274 219.366 18.2029 221.276 16.5504Z" fill="#3CB49A" fill-opacity="0.498039"/>
<path d="M75.9959 9.3849C74.5309 8.7949 73.4559 7.8779 72.2459 6.9019L69.4859 4.26041L70.2509 2.9444C70.8809 3.6944 71.6159 4.37391 72.3009 5.07091L75.9959 9.3849Z" fill="#3CB49A" fill-opacity="0.0470588"/>
<path d="M14.0008 46.6069L13.5858 48.5784C12.2008 49.8634 11.2308 49.8709 9.41577 50.2819C9.47077 50.0974 9.51581 49.9089 9.58081 49.7294C10.3308 47.7634 12.2108 47.3144 14.0008 46.6069Z" fill="#3CB49A"/>
<path d="M132.336 16.759L129.651 17.265C128.206 17.3985 127.161 18.29 125.996 19.083L124.811 18.2975C125.986 17.7325 126.921 16.831 127.911 15.993L132.336 16.759Z" fill="#3CB49A" fill-opacity="0.894118"/>
<path d="M48.0359 55.0175L47.5009 55.7924C46.1909 54.6614 44.4859 52.7279 42.9509 52.0359L41.5009 49.7769L42.1659 49.33C43.9359 51.415 46.0059 53.194 48.0359 55.0175Z" fill="#3CB49A" fill-opacity="0.466667"/>
<path d="M78.8459 12.3774L78.6658 13.7434C76.5058 11.5514 74.0808 9.36692 72.2458 6.90192C73.4558 7.87792 74.5308 8.79492 75.9958 9.38492C77.0058 10.1864 77.9559 11.4249 78.8459 12.3774Z" fill="#3CB49A" fill-opacity="0.203922"/>
<path d="M84.0408 18.2189L82.6509 18.0814C81.3409 16.6139 80.0358 15.1544 78.6658 13.7434L78.8459 12.3774C79.7709 13.4154 80.7909 14.3169 81.8259 15.2409C82.7159 16.1364 83.3508 17.1649 84.0408 18.2189Z" fill="#3CB49A" fill-opacity="0.0862745"/>
<path d="M319.746 24.252C320.976 25.55 322.301 25.5845 324.011 26.0255C322.221 26.11 319.101 26.8825 317.566 26.192C318.151 25.187 318.761 24.8405 319.746 24.252Z" fill="#3CB49A" fill-opacity="0.0156863"/>
<path d="M27.8058 36.2274L28.4208 36.0134C30.3008 37.7534 32.0259 39.4939 33.6909 41.4479C31.5309 40.2239 29.7059 38.5489 27.8159 36.9504L27.8058 36.2274Z" fill="#3CB49A" fill-opacity="0.341176"/>
<path d="M37.0709 43.8344L37.7659 44.9099L37.5309 45.8499C36.1659 44.7514 34.1809 43.1914 33.6909 41.4479C35.0209 41.5149 36.0859 42.9504 37.0709 43.8344Z" fill="#3CB49A" fill-opacity="0.909804"/>
<path d="M88.5008 23.9474L86.5708 23.4334L86.3058 23.2474C85.3708 21.8749 84.4558 20.5109 83.3858 19.2384L84.3608 18.8609L88.5008 23.9474Z" fill="#3CB49A" fill-opacity="0.0862745"/>
<path d="M86.2908 40.1175L81.3309 44.683L80.5159 44.392L85.8658 39.2435L86.2908 40.1175Z" fill="#3CB49A" fill-opacity="0.141176"/>
<path d="M22.6758 9.81345C21.2008 11.2914 19.7959 12.9605 17.9109 13.909L17.6459 13.3804L17.9059 13.1714C19.2409 12.1769 20.2959 10.8639 21.4059 9.63295L22.0408 8.96844L22.6758 9.81345Z" fill="#3CB49A" fill-opacity="0.14902"/>
<path d="M44.2759 -2.38412L39.9259 2.40787L39.1559 2.05988L43.4609 -2.71613L44.2759 -2.38412Z" fill="#3CB49A" fill-opacity="0.54902"/>
<path d="M118.956 12.2534C117.981 13.3674 116.831 15.0654 115.416 15.5304C115.856 13.9739 117.041 12.8949 118.091 11.7139L118.731 11.5884L118.956 12.2534Z" fill="#3CB49A" fill-opacity="0.168627"/>
<path d="M105.631 35.09C106.121 33.8155 106.406 32.6925 107.591 31.895C108.021 33.29 107.161 34.2675 106.556 35.556L106.336 35.606L105.631 35.09Z" fill="#3CB49A" fill-opacity="0.101961"/>
<path d="M37.7659 44.91L42.1658 49.33L41.5009 49.777L37.5309 45.85L37.7659 44.91Z" fill="#3CB49A" fill-opacity="0.627451"/>
<path d="M106.841 3.63995C105.716 5.45845 104.686 6.21145 102.786 7.08195C102.891 6.62895 102.951 6.27295 103.201 5.85345C103.981 4.54995 105.501 4.11445 106.841 3.63995Z" fill="#3CB49A" fill-opacity="0.913725"/>
<path d="M131.556 30.8494L131.581 31.0269C130.876 32.1559 129.551 32.7844 128.451 33.5119C128.946 32.0924 128.991 31.6559 130.191 30.6834L131.556 30.8494Z" fill="#3CB49A" fill-opacity="0.741176"/>
<path d="M111.561 27.4895C110.756 28.6755 110.331 29.8144 108.976 30.3634C108.991 28.9554 109.896 28.1194 110.736 27.0829L111.561 27.4895Z" fill="#3CB49A" fill-opacity="0.0784314"/>
<path d="M102.791 23.1869L100.736 25.2114L100.281 24.2279L102.561 21.9499L102.791 23.1869Z" fill="#3CB49A" fill-opacity="0.101961"/>
<path d="M221.146 18.493C222.141 19.342 223.026 19.695 223.226 21.029L222.346 21.0055C221.896 20.1745 221.481 19.3775 221.146 18.493Z" fill="#3CB49A" fill-opacity="0.0196078"/>
<path d="M102.811 18.3719C101.746 19.1704 100.946 20.0744 99.6009 20.2229C100.161 19.2554 100.796 18.7539 101.671 18.0699L102.811 18.3719Z" fill="#3CB49A" fill-opacity="0.117647"/>
<path d="M127.911 15.9929C126.921 16.8309 125.986 17.7324 124.811 18.2974C125.296 16.9744 126.466 16.3094 127.546 15.4919L127.911 15.9929Z" fill="#3CB49A" fill-opacity="0.172549"/>
<path d="M89.6109 25.6029C87.9559 25.0799 87.7059 24.6824 86.5709 23.4334L88.5009 23.9474L89.6109 25.6029Z" fill="#3CB49A" fill-opacity="0.388235"/>
<path d="M81.3309 44.683L79.7809 46.707L78.5009 46.5595L80.5159 44.392L81.3309 44.683Z" fill="#3CB49A" fill-opacity="0.431373"/>
<path d="M113.516 25.3979L111.561 27.4895L110.736 27.0829L112.301 25.2285L113.516 25.3979Z" fill="#3CB49A" fill-opacity="0.321569"/>
<path d="M8.76593 28.4939L7.9259 28.8449L6.16589 27.3824L6.53094 26.3104L8.76593 28.4939Z" fill="#3CB49A" fill-opacity="0.168627"/>
<path d="M133.706 21.6705L134.726 22.654L133.211 24.186L132.821 22.195L133.706 21.6705Z" fill="#3CB49A" fill-opacity="0.184314"/>
<path d="M27.1509 15.552L25.8709 16.7825L24.9809 16.3884L26.6359 14.4839L27.1509 15.552Z" fill="#3CB49A" fill-opacity="0.282353"/>
<path d="M103.031 16.8449C103.756 17.2819 104.456 17.5419 105.246 17.8424L102.811 18.3719L101.671 18.0699L103.031 16.8449Z" fill="#3CB49A" fill-opacity="0.67451"/>
<path d="M123.116 45.771L121.776 45.665L120.091 44.7245L120.931 44.0945L123.116 45.771Z" fill="#3CB49A" fill-opacity="0.172549"/>
<path d="M70.2508 2.94437L69.4858 4.26038L68.4958 2.77887L69.3908 2.22638L70.2508 2.94437Z" fill="#3CB49A" fill-opacity="0.219608"/>
<path d="M87.2958 39.3235L86.2908 40.1174L85.8658 39.2435L87.2259 37.989L87.2958 39.3235Z" fill="#3CB49A" fill-opacity="0.305882"/>
<path d="M21.4058 9.63287C20.2958 10.8639 19.2408 12.1769 17.9058 13.1714L17.7308 12.5404C19.0608 11.8119 20.2458 10.6229 21.4058 9.63287Z" fill="#3CB49A" fill-opacity="0.529412"/>
<path d="M24.8409 12.7234C24.1559 13.2669 23.4809 13.8644 22.7509 14.3484L24.5209 11.8809L24.8409 12.7234Z" fill="#3CB49A" fill-opacity="0.262745"/>
<path d="M104.221 21.5954L102.791 23.1869L102.561 21.9499L102.881 21.4549L104.221 21.5954Z" fill="#3CB49A" fill-opacity="0.286275"/>
<path d="M84.3609 18.8609L83.3859 19.2384L82.6509 18.0814L84.0409 18.2189L84.3609 18.8609Z" fill="#3CB49A" fill-opacity="0.294118"/>
</svg>
