<svg width="106" height="54" viewBox="0 0 106 54" fill="none" xmlns="http://www.w3.org/2000/svg">
<path d="M109.484 24.5661C108.47 27.0139 95.5775 37.1089 92.7503 38.9005C86.3706 35.8438 80.8507 29.7023 75.7196 25.105C75.8927 24.8206 75.9165 24.7667 76.155 24.4674C77.8052 22.4048 89.5601 11.0316 91.6791 11.128C95.0574 11.2852 106.85 21.7112 109.484 24.5661ZM80.6934 25.3657C82.1692 26.4971 90.7813 32.7012 91.2331 33.3445C91.3648 33.5308 91.3649 33.7818 91.4308 34.0017L91.1388 34.8255C92.7151 34.5371 102.937 25.7521 104.34 24.2293C104.243 24.1862 104.146 24.1432 104.051 24.1001C100.816 22.5995 94.1134 15.1514 91.4711 15.0381C89.2919 16.6114 87.5218 18.7276 85.4573 20.453C84.1583 21.5356 81.483 22.8672 80.6061 24.2093C80.4886 24.3883 80.4584 24.6132 80.3845 24.8152L80.6934 25.3657Z" fill="#B27845"/>
<path d="M98.7898 23.9102C98.784 24.0118 98.7853 24.1132 98.7722 24.2123C98.4276 26.807 94.1217 30.0218 92.258 31.617C89.3838 30.0705 86.5697 27.1718 83.933 25.1525C83.8392 24.7997 83.777 24.8546 83.9377 24.5651C84.7313 23.1395 90.0455 18.8837 91.6125 18.2726C94.1896 18.9747 96.9487 22.0188 98.7898 23.9102ZM89.2077 26.1908C90.4261 27.0827 91.2492 27.888 92.865 27.7321C93.6471 27.2517 94.071 26.9053 94.2976 25.9843C94.5373 25.007 94.4681 23.9943 94.3695 23.0037C93.786 22.4196 93.6345 22.1323 92.7645 22.097C91.5641 22.0481 89.8107 23.0054 89.0616 23.9014C88.6282 24.4215 88.4939 24.7424 88.5294 25.4062L89.2077 26.1908Z" fill="#B27845"/>
<path d="M90.7486 52.0623L90.6806 52.3202C87.5911 52.8021 85.6574 51.42 83.999 48.7742C82.5933 47.8173 80.4463 46.0292 79.1778 44.8716C67.7723 34.4764 55.6636 24.0179 43.8851 14.1094C41.0069 11.6927 38.0395 9.3823 34.9888 7.18597C33.0565 5.78251 25.7679 1.11914 25.8533 -1.17048C27.421 -2.50238 31.8733 -0.00574335 33.3833 1.10613C45.0613 9.71708 55.7779 19.5307 67.2847 28.3513C73.839 33.3738 81.7855 36.2331 87.7476 42.0545C88.7582 43.0554 90.0735 45.2583 88.4921 46.3103C86.7909 45.4993 85.6173 44.3153 84.1441 43.3814C81.1591 41.4905 75.7938 37.4594 72.7128 36.1072C73.7289 38.0664 86.775 46.49 89.6784 49.1649C90.4239 50.1589 90.4755 50.8596 90.7486 52.0623Z" fill="#B27845"/>
<path d="M77.8893 46.5892C79.1207 47.5876 81.3279 50.111 82.4901 51.3673C81.2452 51.6745 80.634 51.7558 79.3542 51.885C79.0598 51.5022 78.7637 51.0609 78.4093 50.7516L79.3409 50.6174C76.8529 49.7103 75.6447 48.8448 73.6186 47.166C61.9281 37.4903 50.4163 27.5861 38.645 18.0138C32.1939 12.7646 25.38 7.98582 18.6271 3.1442C16.6183 1.7132 14.5467 0.131529 12.7298 -1.5336C14.1747 -1.48789 19.178 -1.46812 20.1989 -0.787712C28.0485 4.43889 36.441 10.3092 43.719 16.3288C52.354 23.472 60.4453 31.2527 69.3691 38.09C70.2169 38.7399 71.1414 39.8924 71.9568 40.631C73.31 42.4086 76.7273 44.9592 77.8893 46.5892Z" fill="#B27845"/>
<path d="M140.03 42.4096C140.666 43.4435 140.693 43.5363 141.025 44.7162C139.469 43.4906 136.951 41.0761 135.122 41.181L134.725 41.4414L134.583 42.2215C133.796 41.8105 133.713 41.8045 133.038 41.1852L132.967 39.7695C130.011 38.2383 123.7 31.16 121.921 28.2634C115.814 35.8693 107.398 42.5292 100.116 48.9619C97.3328 51.4198 94.6324 53.8918 90.6805 52.3201L90.7486 52.0623C91.7267 51.3717 93.6844 49.3071 94.7127 48.4045L106.666 37.9047C110.068 34.9383 119.694 27.0137 119.996 22.5995C120.556 21.4838 121.27 21.0264 122.244 20.2425L123.076 21.0422L122.742 18.7011L123.389 19.7187C124.729 20.3836 126.885 18.333 128.662 17.9063C127.976 19.1959 125.158 25.4851 125.262 26.5957C126.112 27.3469 127.176 28.6642 127.968 29.5209C131.548 33.3863 135.47 36.8752 139.166 40.6364L139.616 40.9193C139.945 41.6108 139.916 41.6382 140.03 42.4096Z" fill="#B27845"/>
<path d="M50.0732 30.4984C50.0306 30.6729 50.0151 30.7721 49.9172 30.9452C49.0721 32.4361 25.4841 50.8948 22.3724 52.9762C21.5378 53.5325 20.709 53.8672 19.7299 54.0801C18.6029 54.3257 15.5637 54.7344 14.6587 54.1553L15.1592 53.5188C22.791 47.7184 30.3482 41.821 37.8282 35.824C39.6159 34.3801 45.1441 29.1182 46.7448 28.3994C46.9654 28.3008 47.2251 28.3453 47.4652 28.3182C48.5718 28.7297 49.2794 29.6604 50.0732 30.4984Z" fill="#B27845"/>
<path d="M122.244 20.2425C121.27 21.0264 120.556 21.4838 119.996 22.5995C118.354 21.8565 111.513 15.5142 109.502 13.7976C104.968 9.92553 100.377 6.35383 95.6856 2.64032C93.9556 1.27209 91.32 -1.5881 89.3649 -3.32201C90.5987 -3.37538 91.8962 -3.47831 93.1179 -3.27515C95.9285 -2.81082 116.52 13.9803 119.416 16.7756C120.481 17.802 121.365 19.0569 122.244 20.2425Z" fill="#B27845"/>
<path d="M78.2544 -0.988899C78.1862 -0.648275 78.1878 -0.568242 78.0244 -0.222685C77.1809 1.56178 74.1503 2.08233 72.4338 2.15519C64.2793 2.49866 61.161 2.29521 53.7222 6.41471C51.563 7.6112 49.5393 9.11147 47.2928 10.1339C46.447 9.9698 46.25 9.53138 45.6836 8.90156C45.8141 8.56479 45.8104 8.54618 46.0184 8.17821C48.5007 3.7949 55.5802 0.516754 60.1937 -0.876925C64.439 -2.15774 74.2955 -3.09422 78.2544 -0.988899Z" fill="#B27845"/>
<path d="M55.1499 35.0329L54.558 35.3779C50.5613 36.5114 46.4718 41.6563 43.3112 44.1498C39.7418 46.9654 35.4886 51.0305 31.8314 53.4318C30.1839 53.543 28.1095 53.483 26.4266 53.475C29.8347 49.7583 35.2732 45.8145 39.1302 42.4742C43.2907 38.8704 47.1837 35.2277 51.5104 31.7828C52.5037 32.5253 54.1728 34.1405 55.1499 35.0329Z" fill="#B27845"/>
<path d="M79.3543 51.8849C72.951 53.7856 60.3201 53.5122 54.5468 49.9045C52.5536 48.66 48.1363 46.3067 46.916 44.4272C46.8382 42.7954 47.7068 42.3343 49.1863 42.2084C50.318 42.6512 52.4256 44.0746 53.5548 44.8191C61.4169 50 69.7416 48.2725 78.4093 50.7516C78.7637 51.0608 79.0598 51.5022 79.3543 51.8849Z" fill="#B27845"/>
<path d="M89.0594 2.81939C87.8607 6.95328 85.7928 6.89572 84.3949 9.1872C82.4506 10.9151 81.1242 11.6567 79.1651 13.1634C75.1668 15.9518 71.2681 18.7806 67.5771 21.9701C65.9167 23.4056 64.7327 24.1812 62.5995 22.94C60.6328 19.2605 84.3257 4.98737 87.9308 2.72881L89.0594 2.81939Z" fill="#B27845"/>
<path d="M89.092 2.21529C89.2116 1.2862 89.3743 1.28232 90.1615 1.14882C91.7913 1.68395 95.6996 4.84487 97.125 6.11091C100.188 8.83278 118.928 21.915 117.684 25.2011L116.597 25.0935L114.24 23.7909C111.829 21.9958 109.731 19.9743 107.407 18.1104C102.338 14.0402 97.2014 10.121 92.5308 5.58223C91.572 4.64943 90.4679 3.53589 89.4666 2.66817L89.092 2.21529Z" fill="#B27845"/>
<path d="M116.083 25.5034L116.569 26.2313C112.035 31.8779 106.576 35.63 101.176 40.3657C98.2353 42.9421 94.1133 48.0131 90.0019 48.0815C89.9316 47.5066 89.855 47.6659 90.2715 47.1969C94.5147 42.4327 99.3089 38.2426 104.083 34.0424C107.399 31.1287 110.339 27.9517 113.841 25.2418C114.082 25.0546 114.018 25.1041 114.222 24.867L116.083 25.5034Z" fill="#B27845"/>
<path d="M67.807 8.86104C71.8952 5.04012 74.1482 5.16805 78.6259 2.50701C81.333 0.899763 84.152 -1.53765 87.1464 -3.25584C88.1254 -2.5424 88.7354 -1.37173 89.4094 -0.325386C83.7582 3.02555 75.3389 8.72192 69.9084 12.5C69.5874 11.2478 68.8709 9.66321 67.807 8.86104Z" fill="#B27845"/>
<path d="M70.5713 47.556C62.0182 46.206 60.07 44.3144 54.1832 38.3124C54.5913 36.7172 55.0298 36.9843 54.5581 35.378L55.1499 35.0329L56.3471 36.2563C60.7218 38.4772 66.975 44.1582 70.5713 47.556Z" fill="#B27845"/>
<path d="M55.1499 35.0329L56.3471 36.2563C55.7513 37.4903 55.4367 37.6073 54.1831 38.3124C54.5912 36.7172 55.0297 36.9843 54.558 35.378L55.1499 35.0329Z" fill="#B27845"/>
<path d="M68.395 3.7594C66.0365 7.75004 62.8149 9.80995 59.1499 12.5371C57.7073 13.6071 55.0028 16.346 53.4435 14.568C54.2162 12.8253 54.7738 12.2408 55.965 10.7577C57.0442 9.96058 57.9598 9.02857 58.4847 7.78821L58.8733 7.60545C63.2162 5.52953 62.6436 4.72103 68.395 3.7594Z" fill="#B27845"/>
<path d="M67.8071 8.86101C68.871 9.66319 69.5875 11.2477 69.9085 12.5C67.8489 13.8703 60.8524 19.6503 59.4872 19.6213C58.5667 19.2909 57.5907 18.6681 57.4354 17.6174C58.4576 15.9622 65.7924 10.5559 67.8071 8.86101Z" fill="#B27845"/>
<path d="M114.897 46.5309C114.882 47.0251 114.844 47.5305 114.72 48.0086C114.458 49.0158 113.585 49.8214 112.709 50.32C110.199 51.7411 105.311 51.916 102.587 51.0973C102.768 49.9505 103.48 49.1435 104.325 48.3893C107.197 45.8252 111.366 46.2306 114.897 46.5309Z" fill="#B27845"/>
<path d="M114.034 1.77417C113.972 2.09328 113.861 2.40024 113.762 2.70954C113.302 3.00344 112.919 3.21807 112.372 3.30048C108.459 3.89539 103.989 1.38848 100.923 -0.740746C100.783 -1.20454 100.794 -0.956544 100.942 -1.48591C102.829 -2.54513 106.96 -2.1149 109.045 -1.60127C111.398 -1.02196 112.76 -0.288259 114.034 1.77417Z" fill="#B27845"/>
<path d="M44.9543 2.85963C45.368 4.39798 45.0843 6.05702 44.8316 7.60055C42.9154 6.13264 41.5266 4.77499 40.2383 2.71825C39.9301 1.89543 39.3649 0.742382 39.7968 -0.119399C40.1448 -0.816356 40.7525 -1.24988 41.4868 -1.48356C42.3945 -1.77208 43.2289 -1.70653 44.0669 -1.26201C44.7463 -0.181092 44.7737 1.59868 44.9543 2.85963Z" fill="#B27845"/>
<path d="M46.2911 47.0259C46.39 48.9828 46.3972 50.9579 45.165 52.6048C44.7958 53.0967 44.1867 53.5276 43.544 53.5162C42.5525 53.5024 41.3641 52.7806 40.7409 52.0427C41.2356 50.0396 41.9463 48.4532 43.2731 46.8334C43.883 46.0902 44.4191 45.6103 45.4041 45.5094C46.1008 45.9066 46.055 46.2787 46.2911 47.0259Z" fill="#B27845"/>
<path d="M74.391 25.1578C74.4142 25.2346 74.4479 25.3086 74.4611 25.3883C74.596 26.2126 74.1142 27.3265 73.6373 27.9705C72.9757 28.3893 72.6474 28.5679 71.8231 28.4701C70.1595 28.2721 69.4679 27.1087 68.5544 25.8572C68.9241 24.9515 70.1934 22.954 71.0498 22.4746C71.6562 22.1371 72.0813 22.1324 72.7289 22.3919C73.6161 22.7472 74.0538 24.3276 74.391 25.1578Z" fill="#B27845"/>
<path d="M56.4779 8.40456L56.854 8.86274C56.5602 9.58776 56.5069 9.61305 56.0266 10.2491L55.965 10.7577C54.7738 12.2408 54.2162 12.8253 53.4435 14.5681C52.2644 13.2401 50.1235 12.3835 50.7153 10.3648C51.9701 9.3526 54.8581 8.77408 56.4779 8.40456Z" fill="#B27845"/>
<path d="M57.11 43.3011C56.9259 43.8207 57.0764 43.5715 56.6003 44.0153C56.2268 44.0882 55.8961 44.1361 55.5165 44.0571C53.6056 43.6541 51.7814 42.0398 50.7388 40.4551C50.871 40.2597 51.2218 39.9578 51.3942 39.7882C51.8513 39.6332 52.2805 39.4548 52.7742 39.5525C54.4841 39.8962 56.0737 42.0072 57.11 43.3011Z" fill="#B27845"/>
<path d="M58.4847 7.78809C57.9598 9.02845 57.0443 9.96046 55.9651 10.7576L56.0267 10.2489C56.507 9.61288 56.5603 9.58759 56.854 8.86257L56.4779 8.40439C57.2149 8.08789 57.7134 7.99329 58.4847 7.78809Z" fill="#B27845" fill-opacity="0.94902"/>
</svg>
