<svg width="110" height="54" viewBox="0 0 110 54" fill="none" xmlns="http://www.w3.org/2000/svg">
<path d="M-0.594131 28.0209C0.478355 25.5979 13.607 15.8124 16.476 14.0885C22.7812 17.2961 28.1535 23.5672 33.1738 28.2851C32.994 28.5653 32.9689 28.6187 32.7234 28.9123C31.0246 30.935 19.0026 42.0255 16.8864 41.8787C13.5128 41.6412 1.97167 30.9377 -0.594131 28.0209ZM28.2077 27.9062C26.7592 26.7401 18.297 20.3329 17.8607 19.6791C17.7334 19.4896 17.7393 19.2388 17.6787 19.0173L17.9901 18.2007C16.4074 18.4516 5.97955 26.9909 4.54094 28.48C4.63648 28.5253 4.73227 28.5707 4.82701 28.616C8.02525 30.1931 14.5485 37.7985 17.1874 37.9746C19.4034 36.4535 21.2233 34.3801 23.3283 32.7042C24.6526 31.6528 27.3588 30.3853 28.2675 29.0644C28.3891 28.8882 28.4246 28.6641 28.5034 28.4639L28.2077 27.9062Z" fill="#B27845"/>
<path d="M10.0817 28.9309C10.09 28.8295 10.091 28.7281 10.1065 28.6294C10.5127 26.0436 14.8939 22.932 16.795 21.3816C19.6316 22.9961 22.3759 25.9609 24.9639 28.0423C25.0493 28.3972 25.1128 28.3438 24.9452 28.6294C24.118 30.0357 18.704 34.1639 17.1229 34.7377C14.5633 33.9745 11.8774 30.8656 10.0817 28.9309ZM19.7154 26.8788C18.5186 25.9582 17.7148 25.1336 16.0958 25.251C15.3024 25.7127 14.8704 26.0489 14.622 26.9642C14.3591 27.9356 14.4042 28.9496 14.4792 29.9423C15.0487 30.5401 15.1933 30.8309 16.0622 30.887C17.2611 30.9643 19.0368 30.0491 19.8069 29.1711C20.2526 28.6614 20.3945 28.3439 20.3748 27.6794L19.7154 26.8788Z" fill="#B27845"/>
<path d="M18.7901 0.978111L18.8643 0.721942C21.9644 0.313656 23.8646 1.74133 25.4596 4.42588C26.8422 5.4159 28.9461 7.25451 30.1867 8.44201C41.3417 19.1055 53.1983 29.849 64.7379 40.0348C67.5577 42.5193 70.4693 44.8996 73.4669 47.1678C75.3653 48.6169 82.541 53.4523 82.4012 55.7392C80.8022 57.0334 76.4106 54.4316 74.9274 53.2841C63.4575 44.3979 52.9773 34.3322 41.6835 25.2405C35.2505 20.0635 27.3743 17.016 21.5523 11.0545C20.5658 10.0298 19.3033 7.79623 20.9092 6.78218C22.5907 7.63345 23.7358 8.84496 25.1864 9.81364C28.1255 11.775 33.3935 15.9326 36.4415 17.3576C35.4722 15.3749 22.6302 6.64341 19.7911 3.90015C19.0695 2.88877 19.0346 2.18696 18.7901 0.978111Z" fill="#B27845"/>
<path d="M31.5156 6.75535C30.3084 5.72796 28.1618 3.15281 27.0298 1.86924C28.2816 1.59171 28.8946 1.52502 30.1771 1.42629C30.4624 1.81589 30.7479 2.2642 31.0948 2.58175L30.1603 2.69384C32.626 3.65985 33.8133 4.5538 35.7989 6.28034C47.256 16.2313 58.529 26.4065 70.0694 36.256C76.3938 41.6572 83.0921 46.5966 89.7279 51.5975C91.7021 53.0758 93.7356 54.7063 95.5123 56.4142C94.0689 56.3341 89.0675 56.1954 88.063 55.4909C80.34 50.0791 72.0894 44.0108 64.9567 37.8198C56.494 30.4733 48.59 22.5024 39.8313 15.4548C38.9993 14.785 38.1024 13.6108 37.3048 12.853C35.9942 11.0437 32.6386 8.41251 31.5156 6.75535Z" fill="#B27845"/>
<path d="M-30.7067 9.45608C-31.3185 8.40735 -31.3431 8.31396 -31.6465 7.12646C-30.1206 8.38867 -27.6605 10.8624 -25.8294 10.801L-25.4259 10.5502L-25.266 9.77363C-24.489 10.2033 -24.406 10.2113 -23.7458 10.8464L-23.7089 12.2634C-20.7901 13.8645 -14.6487 21.0909 -12.9398 24.029C-6.65352 16.5704 1.91864 10.1126 9.35159 3.85483C12.1925 1.46382 14.951 -0.943204 18.8644 0.721965L18.7902 0.978134C17.7959 1.64527 15.7897 3.66268 14.7402 4.54063L2.54094 14.7531C-0.931095 17.6378 -10.7428 25.3312 -11.1497 29.737C-11.736 30.8391 -12.4608 31.2794 -13.4532 32.0399L-14.2658 31.2207L-13.9872 33.569L-14.6106 32.5363C-15.9336 31.8398 -18.1381 33.8385 -19.9247 34.2228C-19.2082 32.9499 -16.2413 26.7295 -16.3195 25.6167C-17.1507 24.8455 -18.1832 23.5033 -18.9547 22.628C-22.4414 18.6786 -26.2793 15.0974 -29.8853 11.2493L-30.3283 10.9558C-30.641 10.2566 -30.6117 10.23 -30.7067 9.45608Z" fill="#B27845"/>
<path d="M58.9413 23.5032C58.988 23.3297 59.0058 23.231 59.1078 23.0602C59.9881 21.5898 84.0084 3.69728 87.1688 1.69054C88.0163 1.15416 88.8529 0.839268 89.8368 0.649802C90.9693 0.430982 94.0173 0.094725 94.9084 0.695146L94.3928 1.31961C86.6252 6.93688 78.93 12.6529 71.3094 18.4703C69.4879 19.8713 63.8362 25.0002 62.2188 25.6807C61.9959 25.7741 61.7374 25.7234 61.4967 25.7448C60.4002 25.3071 59.7149 24.3598 58.9413 23.5032Z" fill="#B27845"/>
<path d="M-13.4532 32.0398C-12.4608 31.2793 -11.736 30.839 -11.1497 29.7369C-9.5254 30.5188 -2.83777 37.022 -0.868385 38.7859C3.57233 42.7647 8.07789 46.4446 12.6792 50.2686C14.3762 51.6776 16.943 54.5996 18.8564 56.3796C17.6217 56.4036 16.3221 56.4756 15.1055 56.2435C12.3067 55.7124 -7.87998 38.4363 -10.7084 35.573C-11.7488 34.5216 -12.6025 33.246 -13.4532 32.0398Z" fill="#B27845"/>
<path d="M30.0191 54.3114C30.0955 53.9725 30.0957 53.8924 30.2673 53.5508C31.153 51.7869 34.1951 51.3386 35.9129 51.3066C44.0733 51.1572 47.1858 51.4347 54.7205 47.4933C56.9076 46.3485 58.9664 44.8968 61.2365 43.9281C62.0782 44.1122 62.2647 44.5552 62.816 45.1983C62.6775 45.5319 62.6807 45.5506 62.464 45.9135C59.8782 50.2365 52.7228 53.3454 48.0774 54.6289C43.8029 55.8084 33.9269 56.5102 30.0191 54.3114Z" fill="#B27845"/>
<path d="M53.9738 18.8493L54.5737 18.5184C58.5963 17.4803 62.807 12.4341 66.026 10.0164C69.6614 7.28649 74.01 3.32371 77.7233 1.01009C79.373 0.938037 81.4454 1.04743 83.1276 1.09547C79.6321 4.73002 74.1013 8.54338 70.166 11.791C65.9209 15.2948 61.9424 18.8439 57.535 22.1849C56.5597 21.4191 54.9294 19.7646 53.9738 18.8493Z" fill="#B27845"/>
<path d="M30.1771 1.42635C36.6237 -0.321541 49.2446 0.252197 54.9304 3.99616C56.8934 5.28773 61.2535 7.74544 62.4288 9.65345C62.4677 11.2866 61.5884 11.7269 60.1063 11.8176C58.9855 11.348 56.9124 9.87492 55.8012 9.10371C48.0645 3.73728 39.7011 5.26637 31.0948 2.58182C30.7479 2.26426 30.4623 1.81596 30.1771 1.42635Z" fill="#B27845"/>
<path d="M19.3078 50.2472C20.6045 46.143 22.6705 46.2497 24.1224 43.9922C26.1073 42.311 27.4509 41.6012 29.4454 40.1415C33.5087 37.4489 37.4737 34.7137 41.2395 31.6128C42.9335 30.2172 44.1357 29.47 46.2387 30.7615C48.1174 34.4868 24.0917 48.1924 20.434 50.3646L19.3078 50.2472Z" fill="#B27845"/>
<path d="M19.2609 50.8504C19.1192 51.7764 18.9564 51.7764 18.1662 51.8911C16.5496 51.3174 12.7176 48.0644 11.3228 46.7648C8.32495 43.9709 -10.0986 30.4467 -8.77611 27.1911L-7.69243 27.3245L-5.36733 28.6828C-2.99953 30.5348 -0.950095 32.6056 1.3291 34.5242C6.30006 38.7138 11.3417 42.754 15.9031 47.4026C16.8395 48.358 17.9167 49.4974 18.8972 50.3887L19.2609 50.8504Z" fill="#B27845"/>
<path d="M-7.16918 26.9269L-7.6375 26.1877C-2.97022 20.6505 2.57686 17.0293 8.0874 12.4234C11.0887 9.91767 15.3301 4.94617 19.442 4.97553C19.4986 5.55193 19.5789 5.3945 19.1514 5.85349C14.7961 10.5154 9.90361 14.5903 5.03086 18.6758C1.64662 21.5098 -1.36803 24.616 -4.93347 27.2418C-5.17871 27.4233 -5.11359 27.3753 -5.32334 27.6074L-7.16918 26.9269Z" fill="#B27845"/>
<path d="M40.6978 44.7127C36.52 48.4353 34.2707 48.2538 29.731 50.8076C26.9864 52.35 24.1102 54.7197 21.0758 56.3662C20.1141 55.6297 19.5321 54.4448 18.8831 53.3828C24.6124 50.1672 33.1648 44.6726 38.6836 41.0248C38.9748 42.2843 39.6534 43.8854 40.6978 44.7127Z" fill="#B27845"/>
<path d="M38.8546 5.96289C47.3732 7.51598 49.2758 9.45333 55.0182 15.5936C54.5723 17.1788 54.1403 16.9012 54.5737 18.5183L53.9738 18.8492L52.806 17.5977C48.4854 15.2734 42.3691 9.44533 38.8546 5.96289Z" fill="#B27845"/>
<path d="M53.9738 18.8492L52.8061 17.5977C53.4311 16.3782 53.7483 16.2688 55.0183 15.5936C54.5724 17.1788 54.1404 16.9012 54.5737 18.5183L53.9738 18.8492Z" fill="#B27845"/>
<path d="M39.9888 49.7988C42.4414 45.8654 45.7112 43.8827 49.4399 41.2435C50.9076 40.2081 53.6765 37.5342 55.193 39.3489C54.3791 41.0727 53.8078 41.6438 52.5816 43.0981C51.4838 43.8693 50.5463 44.7793 49.9921 46.0068L49.5992 46.1803C45.2082 48.1524 45.7614 48.9742 39.9888 49.7988Z" fill="#B27845"/>
<path d="M40.6978 44.7126C39.6533 43.8854 38.9747 42.2843 38.6835 41.0247C40.7751 39.7038 47.9071 34.0918 49.2712 34.1532C50.1836 34.5055 51.1445 35.1513 51.2748 36.2053C50.2135 37.8358 42.7523 43.0662 40.6978 44.7126Z" fill="#B27845"/>
<path d="M-5.48286 5.93357C-5.45645 5.43989 -5.40654 4.93556 -5.27044 4.46056C-4.98491 3.45986 -4.09335 2.67528 -3.205 2.19761C-0.661879 0.83666 4.22822 0.777982 6.93225 1.66127C6.72357 2.8034 5.99266 3.59329 5.13019 4.32714C2.19773 6.82222 -1.95986 6.31784 -5.48286 5.93357Z" fill="#B27845"/>
<path d="M-5.68481 50.6982C-5.61543 50.3806 -5.49642 50.0764 -5.39074 49.7695C-4.92375 49.4867 -4.53574 49.2812 -3.98709 49.2118C-0.0611352 48.7101 4.3481 51.3226 7.36274 53.5242C7.4919 53.9912 7.4863 53.743 7.32592 54.2687C5.41444 55.2827 1.29475 54.7544 -0.777107 54.1913C-3.11581 53.5562 -4.46049 52.7903 -5.68481 50.6982Z" fill="#B27845"/>
<path d="M63.4014 51.2559C63.0244 49.7082 63.3475 48.0564 63.6368 46.5193C65.5176 48.0323 66.8737 49.4226 68.1127 51.5094C68.4012 52.3393 68.9389 53.5055 68.4866 54.3568C68.1221 55.0453 67.5043 55.4642 66.7646 55.6804C65.8503 55.9472 65.0178 55.8618 64.1905 55.3975C63.537 54.3007 63.5519 52.5208 63.4014 51.2559Z" fill="#B27845"/>
<path d="M63.1153 7.07034C63.063 5.11163 63.1028 3.13693 64.3738 1.5198C64.7546 1.03679 65.3737 0.620497 66.016 0.647182C67.0069 0.684542 68.1778 1.43441 68.7833 2.18693C68.2411 4.17766 67.4928 5.74674 66.1278 7.33452C65.5005 8.06303 64.9532 8.53003 63.9661 8.60742C63.2789 8.1938 63.3336 7.82287 63.1153 7.07034Z" fill="#B27845"/>
<path d="M34.5033 28.2639C34.482 28.1866 34.45 28.1118 34.4388 28.0318C34.3235 27.2045 34.8316 26.1024 35.3237 25.47C35.9951 25.067 36.3276 24.8962 37.1492 25.0137C38.8077 25.2512 39.4714 26.4307 40.3549 27.7036C39.9637 28.6002 38.6473 30.5669 37.7798 31.0259C37.1655 31.3488 36.7404 31.3434 36.0991 31.0686C35.2207 30.6923 34.8206 29.1019 34.5033 28.2639Z" fill="#B27845"/>
<path d="M52.0129 45.4385L51.6479 44.9715C51.9587 44.2536 52.0127 44.2296 52.5079 43.6052L52.5816 43.0982C53.8078 41.6438 54.3791 41.0728 55.193 39.3489C56.3402 40.7045 58.4601 41.6118 57.8205 43.6159C56.542 44.5979 53.641 45.1076 52.0129 45.4385Z" fill="#B27845"/>
<path d="M52.2109 10.5368C52.4073 10.0217 52.2509 10.2672 52.7374 9.83493C53.1126 9.77088 53.4443 9.73087 53.8219 9.81893C55.7227 10.2672 57.508 11.9244 58.5127 13.5336C58.3758 13.7257 58.0179 14.0192 57.8415 14.1847C57.3809 14.3288 56.9476 14.4969 56.4563 14.3875C54.7551 14.0032 53.2161 11.855 52.2109 10.5368Z" fill="#B27845"/>
<path d="M49.992 46.0071C50.5463 44.7796 51.4837 43.8696 52.5815 43.0984L52.5079 43.6054C52.0126 44.2298 51.9587 44.2538 51.6478 44.9717L52.0129 45.4387C51.2686 45.7376 50.768 45.8203 49.992 46.0071Z" fill="#B27845" fill-opacity="0.94902"/>
</svg>
